<?xml version="1.0" encoding="utf-8"?>
<!-- Generator: Adobe Illustrator 21.0.2, SVG Export Plug-In . SVG Version: 6.00 Build 0)  -->
<svg version="1.1" id="Livello_1" xmlns="http://www.w3.org/2000/svg" xmlns:xlink="http://www.w3.org/1999/xlink" x="0px" y="0px"
	 viewBox="0 0 510 190" style="enable-background:new 0 0 510 190;" xml:space="preserve">
<style type="text/css">
	.st0{fill:#164194;}
	.st1{fill:#FFED00;}
	.st2{fill:#EA5B0C;}
</style>
<g>
	<g>
		<rect x="226.3" y="0.4" class="st0" width="283.6" height="189.1"/>
		<path class="st0" d="M368.1,94.9"/>
	</g>
	<g>
		<polygon class="st1" points="362.1,41.6 368.1,37.2 374,41.6 371.8,34.5 377.8,30.1 370.3,30.1 368.1,23 365.8,30.1 358.3,30.1 
			364.3,34.5 		"/>
		<polygon class="st1" points="331.1,49.9 337.1,45.5 343.1,49.9 340.8,42.8 346.9,38.5 339.4,38.5 337.1,31.3 334.8,38.5 
			327.3,38.5 333.4,42.8 		"/>
		<polygon class="st1" points="314.4,54 312.1,61.2 304.6,61.2 310.7,65.5 308.4,72.6 314.4,68.2 320.4,72.6 318.1,65.5 324.2,61.2 
			316.7,61.2 		"/>
		<polygon class="st1" points="306.1,99.2 312.1,103.5 309.8,96.5 315.9,92.1 308.4,92.1 306.1,84.9 303.8,92.1 296.3,92.1 
			302.4,96.5 300.1,103.5 		"/>
		<polygon class="st1" points="316.7,123.1 314.4,116 312.1,123.1 304.6,123.1 310.7,127.5 308.4,134.5 314.4,130.2 320.4,134.5 
			318.1,127.5 324.2,123.1 		"/>
		<polygon class="st1" points="339.4,145.8 337.1,138.7 334.8,145.8 327.3,145.8 333.4,150.2 331.1,157.2 337.1,152.9 343.1,157.2 
			340.8,150.2 346.9,145.8 		"/>
		<polygon class="st1" points="370.4,154 368.1,146.9 365.8,154.1 358.3,154 364.4,158.4 362.1,165.5 368.1,161.1 374,165.5 
			371.8,158.4 377.8,154 		"/>
		<polygon class="st1" points="401.3,145.8 399,138.7 396.7,145.8 389.2,145.8 395.3,150.2 393,157.2 399,152.9 405,157.2 
			402.7,150.2 408.8,145.8 		"/>
		<polygon class="st1" points="424,123.1 421.7,116 419.4,123.1 411.9,123.1 418,127.5 415.7,134.5 421.7,130.2 427.7,134.5 
			425.4,127.5 431.5,123.1 		"/>
		<polygon class="st1" points="439.7,92 432.2,92 429.9,84.8 427.6,92 420.1,92 426.2,96.4 423.9,103.4 429.9,99.1 435.9,103.4 
			433.6,96.4 		"/>
		<polygon class="st1" points="415.7,72.5 421.7,68.1 427.7,72.5 425.4,65.4 431.5,61.1 424,61.1 421.7,53.9 419.4,61.1 411.9,61.1 
			418,65.4 		"/>
		<polygon class="st1" points="399.1,31.3 396.8,38.5 389.3,38.5 395.4,42.8 393.1,49.9 399.1,45.5 405.1,49.9 402.8,42.8 
			408.9,38.5 401.4,38.5 		"/>
	</g>
</g>
<g>
	<g>
		<defs>
			<path id="SVGID_1_" d="M113.8,72.1c1.9-2.2,1.6-5.5-0.6-7.4c-2.2-1.9-5.5-1.6-7.4,0.6c-1.9,2.2-1.6,5.5,0.6,7.4
				C108.6,74.6,111.9,74.3,113.8,72.1 M121.5,82.8c2.6-1.2,3.8-4.3,2.6-6.9c-1.2-2.6-4.3-3.8-6.9-2.6c-2.6,1.2-3.8,4.3-2.6,6.9
				C115.7,82.8,118.8,84,121.5,82.8z M124,85.2c-2.9,0-5.3,2.3-5.3,5.2c0,2.9,2.3,5.3,5.2,5.3c2.9,0,5.3-2.3,5.3-5.2
				C129.2,87.6,126.9,85.2,124,85.2z M120.8,108.1c2.6,1.2,5.7,0.1,7-2.5c1.2-2.6,0.1-5.7-2.5-7c-2.6-1.2-5.7-0.1-7,2.5
				C117,103.8,118.2,106.9,120.8,108.1z M120.9,117.9c2.2-1.9,2.3-5.2,0.4-7.4c-1.9-2.1-5.2-2.3-7.4-0.4c-2.1,1.9-2.3,5.2-0.4,7.4
				C115.4,119.7,118.7,119.8,120.9,117.9z M105.8,117c-2.8,0.9-4.3,3.8-3.4,6.6c0.9,2.7,3.8,4.3,6.6,3.4c2.8-0.9,4.3-3.8,3.4-6.6
				C111.5,117.6,108.5,116.1,105.8,117z M123.6,132.5c1.9-1.5,2.3-4.4,0.7-6.3c-1.5-1.9-4.4-2.3-6.3-0.7c-1.9,1.5-2.3,4.4-0.7,6.3
				C118.9,133.7,121.7,134.1,123.6,132.5z M141.8,95.8c0.1-2.5-1.9-4.5-4.4-4.6c-2.5-0.1-4.5,1.9-4.6,4.4c-0.1,2.5,1.9,4.5,4.4,4.6
				C139.7,100.3,141.7,98.3,141.8,95.8z M133.8,112.5c2.4,0.8,4.9-0.5,5.7-2.9c0.8-2.4-0.5-4.9-2.9-5.7c-2.4-0.8-4.9,0.5-5.7,2.9
				C130.2,109.2,131.4,111.8,133.8,112.5z M134,121.1c1.4-2.1,0.8-4.8-1.3-6.2c-2.1-1.4-4.9-0.8-6.2,1.3c-1.4,2.1-0.8,4.9,1.3,6.2
				C129.9,123.8,132.6,123.2,134,121.1z M136.2,85.9c2.4-0.8,3.7-3.3,2.9-5.6c-0.8-2.4-3.3-3.7-5.7-2.9c-2.4,0.8-3.7,3.3-2.9,5.6
				C131.3,85.4,133.9,86.7,136.2,85.9z M131.3,65.7c-1.5-2-4.3-2.3-6.3-0.8c-2,1.5-2.3,4.3-0.8,6.3c1.5,2,4.3,2.3,6.3,0.8
				C132.5,70.4,132.8,67.6,131.3,65.7z M115,62.6c2.1,1.4,4.8,0.8,6.2-1.2c1.4-2.1,0.8-4.8-1.2-6.2c-2.1-1.4-4.8-0.8-6.2,1.2
				C112.4,58.5,113,61.3,115,62.6z M122.3,52.7c1.8,1.2,4.2,0.7,5.4-1.1c1.2-1.8,0.7-4.2-1.1-5.4c-1.8-1.2-4.2-0.7-5.4,1.1
				C120,49.1,120.5,51.5,122.3,52.7z M135.3,58.9c1.5-1.5,1.5-4,0-5.5c-1.5-1.5-4-1.5-5.5,0c-1.5,1.5-1.5,4,0,5.5
				C131.3,60.4,133.8,60.4,135.3,58.9z M136.2,66.7c1.2,1.8,3.6,2.3,5.4,1.1c1.8-1.2,2.3-3.6,1.2-5.4c-1.2-1.8-3.6-2.3-5.4-1.1
				C135.6,62.5,135.1,64.9,136.2,66.7z M142.6,69.7c-2,0.9-2.9,3.2-2,5.1c0.9,2,3.1,2.9,5.1,2c2-0.9,2.9-3.2,2-5.1
				C146.9,69.8,144.6,68.9,142.6,69.7z M143.4,84.7c0.5,2.1,2.6,3.4,4.7,2.9c2.1-0.5,3.4-2.6,2.9-4.7c-0.5-2.1-2.6-3.4-4.7-2.9
				C144.2,80.5,142.9,82.6,143.4,84.7z M152.5,95.5c0-2.2-1.7-3.9-3.9-3.9c-2.2,0-3.9,1.7-3.9,3.9c0,2.2,1.7,3.9,3.9,3.9
				C150.7,99.4,152.5,97.7,152.5,95.5z M151.2,107c0.4-2.1-0.9-4.2-3-4.6c-2.1-0.4-4.2,0.9-4.6,3c-0.4,2.1,0.9,4.2,3,4.6
				C148.7,110.5,150.8,109.1,151.2,107z M142.9,119.6c2,0.8,4.3-0.1,5.1-2.1c0.8-2-0.1-4.3-2.1-5.1c-2-0.8-4.3,0.1-5.1,2.1
				C139.9,116.5,140.9,118.8,142.9,119.6z M142.1,128.2c1.2-1.8,0.8-4.2-1-5.4c-1.8-1.2-4.2-0.8-5.4,1c-1.2,1.8-0.8,4.2,1,5.4
				C138.5,130.5,140.9,130,142.1,128.2z M134.9,136.8c1.5-1.5,1.6-4,0-5.5c-1.5-1.5-4-1.5-5.5,0c-1.5,1.5-1.5,4,0,5.5
				C130.9,138.3,133.4,138.3,134.9,136.8z M121.6,137.6c-1.8,1.2-2.4,3.6-1.2,5.4c1.2,1.8,3.6,2.3,5.4,1.2c1.8-1.2,2.3-3.6,1.2-5.4
				C125.9,137,123.4,136.5,121.6,137.6z M136.6,47.3c1.3-1.3,1.3-3.4,0-4.7c-1.3-1.3-3.4-1.3-4.7,0c-1.3,1.3-1.3,3.4,0,4.7
				C133.1,48.6,135.2,48.6,136.6,47.3z M145,56.7c1.5-1,2-3.1,0.9-4.6c-1-1.5-3.1-2-4.6-0.9c-1.5,1-2,3.1-0.9,4.6
				C141.4,57.3,143.5,57.7,145,56.7z M147.2,65.7c0.7,1.7,2.6,2.5,4.3,1.8c1.7-0.7,2.5-2.6,1.8-4.3c-0.7-1.7-2.6-2.5-4.3-1.8
				C147.3,62,146.5,64,147.2,65.7z M155.6,78.9c1.8-0.4,3-2.1,2.6-3.9c-0.4-1.8-2.1-3-3.9-2.6c-1.8,0.4-3,2.1-2.6,3.9
				C152.1,78.1,153.8,79.3,155.6,78.9z M157.6,85.2c-1.8,0-3.3,1.5-3.4,3.3c0,1.8,1.5,3.3,3.3,3.4c1.8,0,3.3-1.5,3.4-3.3
				C160.9,86.8,159.5,85.3,157.6,85.2z M160.7,103.3c0.4-1.8-0.7-3.6-2.5-4c-1.8-0.4-3.6,0.7-4,2.5c-0.4,1.8,0.7,3.6,2.5,4
				C158.5,106.2,160.3,105.1,160.7,103.3z M153.6,117.3c1.7,0.7,3.6,0,4.4-1.7c0.7-1.7,0-3.6-1.7-4.4c-1.7-0.7-3.7,0-4.4,1.7
				C151.2,114.6,151.9,116.5,153.6,117.3z M153.1,127.2c1-1.5,0.6-3.6-0.9-4.6c-1.5-1-3.6-0.6-4.6,0.9c-1,1.5-0.6,3.6,0.9,4.6
				C149.9,129.1,152,128.7,153.1,127.2z M145.2,138.7c1.3-1.3,1.4-3.4,0.1-4.7c-1.3-1.3-3.4-1.4-4.7-0.1c-1.3,1.3-1.4,3.4-0.1,4.7
				C141.7,139.9,143.9,140,145.2,138.7z M132.2,142.2c-1.5,1-2,3.1-1,4.6c1,1.5,3.1,2,4.6,1c1.5-1,2-3.1,1-4.6
				C135.8,141.7,133.7,141.2,132.2,142.2z M133.3,35.4c1.4,1,3.4,0.6,4.4-0.9c1-1.5,0.6-3.4-0.9-4.4c-1.5-1-3.4-0.6-4.4,0.9
				C131.5,32.5,131.9,34.5,133.3,35.4z M148.8,44.4c1.2-1.2,1.2-3.2,0-4.5c-1.2-1.2-3.2-1.2-4.5,0c-1.2,1.2-1.2,3.2,0,4.5
				C145.5,45.7,147.5,45.7,148.8,44.4z M158.1,57.1c1.5-0.9,1.9-2.9,1-4.4c-0.9-1.5-2.9-1.9-4.4-1c-1.5,0.9-1.9,2.9-1,4.4
				C154.7,57.6,156.6,58,158.1,57.1z M159.6,67.2c0.7,1.6,2.5,2.4,4.1,1.7c1.6-0.7,2.4-2.5,1.7-4.1c-0.7-1.6-2.5-2.4-4.1-1.7
				C159.7,63.8,158.9,65.6,159.6,67.2z M167.3,82.5c1.7-0.4,2.8-2,2.4-3.7c-0.4-1.7-2-2.8-3.7-2.5c-1.7,0.4-2.8,2-2.4,3.7
				C164,81.7,165.6,82.8,167.3,82.5z M168.3,91c-1.7,0-3.2,1.4-3.1,3.2c0,1.7,1.4,3.2,3.2,3.1c1.7,0,3.2-1.4,3.1-3.2
				C171.5,92.4,170.1,91,168.3,91z M166.1,113.1c1.7,0.4,3.4-0.7,3.7-2.4c0.4-1.7-0.7-3.4-2.4-3.7c-1.7-0.4-3.4,0.7-3.7,2.4
				C163.3,111.1,164.4,112.7,166.1,113.1z M163.7,121.1c-1.6-0.7-3.5,0.1-4.1,1.7c-0.7,1.6,0.1,3.5,1.7,4.2c1.6,0.7,3.5-0.1,4.1-1.7
				C166,123.6,165.3,121.7,163.7,121.1z M158.4,138.1c1-1.5,0.6-3.4-0.9-4.4c-1.4-1-3.4-0.6-4.4,0.9c-1,1.4-0.6,3.4,0.9,4.4
				C155.4,140,157.4,139.6,158.4,138.1z M143.7,146c-1.3,1.2-1.3,3.2-0.1,4.5c1.2,1.2,3.2,1.3,4.5,0.1c1.3-1.2,1.3-3.2,0.1-4.5
				C146.9,144.8,144.9,144.8,143.7,146z M132.4,155c-1.5,0.9-1.9,2.9-1,4.4c0.9,1.5,2.9,1.9,4.4,1c1.5-0.9,1.9-2.9,1-4.4
				C135.9,154.5,133.9,154,132.4,155z M147.2,20.3c0.5-0.7,0.3-1.7-0.4-2.3c-0.7-0.5-1.7-0.3-2.3,0.4c-0.5,0.7-0.3,1.7,0.4,2.3
				C145.6,21.2,146.6,21,147.2,20.3z M160.4,31.8c0.6-0.6,0.7-1.7,0-2.3c-0.6-0.6-1.7-0.7-2.3,0c-0.6,0.6-0.6,1.7,0,2.3
				C158.7,32.4,159.7,32.4,160.4,31.8z M170.9,45.3c0.7-0.5,0.9-1.5,0.5-2.2c-0.5-0.7-1.5-1-2.3-0.5c-0.7,0.5-0.9,1.5-0.5,2.2
				C169.2,45.6,170.2,45.8,170.9,45.3z M177.8,58.1c-0.8,0.3-1.2,1.3-0.9,2.1c0.3,0.8,1.3,1.2,2.1,0.9c0.8-0.3,1.2-1.3,0.9-2.1
				C179.6,58.1,178.6,57.8,177.8,58.1z M183.8,77.3c0.9-0.2,1.4-1,1.3-1.9c-0.2-0.9-1-1.4-1.9-1.2c-0.9,0.2-1.4,1-1.2,1.9
				C182,76.9,182.9,77.5,183.8,77.3z M185.5,92.1c-0.9,0-1.6,0.7-1.6,1.6c0,0.9,0.7,1.6,1.6,1.6c0.9,0,1.6-0.7,1.6-1.6
				C187.1,92.8,186.4,92,185.5,92.1z M184.1,110.7c-0.9-0.2-1.7,0.4-1.9,1.3c-0.2,0.9,0.4,1.7,1.3,1.9c0.9,0.2,1.7-0.4,1.9-1.3
				C185.6,111.7,185,110.9,184.1,110.7z M178.4,130.4c-0.8-0.4-1.8,0-2.1,0.8c-0.4,0.8,0,1.8,0.8,2.1c0.8,0.4,1.8,0,2.1-0.8
				C179.6,131.7,179.2,130.7,178.4,130.4z M167.1,147.3c-0.5,0.7-0.4,1.7,0.4,2.3c0.7,0.5,1.7,0.4,2.3-0.4c0.5-0.7,0.4-1.7-0.4-2.3
				C168.6,146.4,167.6,146.6,167.1,147.3z M157.2,158.9c-0.6,0.6-0.6,1.7,0,2.3c0.6,0.6,1.7,0.6,2.3,0c0.6-0.6,0.6-1.7,0-2.3
				C158.9,158.3,157.9,158.3,157.2,158.9z M143.3,170.2c-0.7,0.5-1,1.5-0.5,2.2c0.5,0.7,1.5,1,2.2,0.5c0.8-0.5,1-1.5,0.5-2.2
				C145.1,169.9,144.1,169.7,143.3,170.2z M145.6,29.6c-0.8,0.8-0.8,2.1,0,2.9c0.8,0.8,2.1,0.8,2.9,0c0.8-0.8,0.8-2.1,0-2.9
				C147.7,28.8,146.4,28.8,145.6,29.6z M159.2,43.9c0.9-0.6,1.2-1.9,0.6-2.8c-0.6-0.9-1.9-1.2-2.8-0.6c-0.9,0.6-1.2,1.9-0.6,2.8
				C157.1,44.3,158.3,44.5,159.2,43.9z M168.3,58.4c1-0.4,1.5-1.6,1.1-2.6c-0.4-1-1.6-1.5-2.6-1.1c-1,0.4-1.5,1.6-1.1,2.6
				C166.1,58.3,167.3,58.8,168.3,58.4z M171.2,70.8c0.2,1.1,1.3,1.8,2.4,1.6c1.1-0.2,1.8-1.3,1.6-2.4c-0.2-1.1-1.3-1.8-2.4-1.6
				C171.7,68.6,171,69.7,171.2,70.8z M176.3,82.8c-1.1,0-2,0.9-2,2.1c0,1.1,0.9,2,2.1,2c1.1,0,2-0.9,2-2.1
				C178.3,83.6,177.4,82.7,176.3,82.8z M174.6,101.9c-0.2,1.1,0.5,2.2,1.6,2.4c1.1,0.2,2.2-0.5,2.4-1.6c0.2-1.1-0.5-2.2-1.6-2.4
				C175.9,100.1,174.8,100.8,174.6,101.9z M174.2,116.8c-1-0.4-2.2,0.1-2.6,1.1c-0.4,1,0.1,2.2,1.1,2.6c1,0.4,2.2-0.1,2.6-1.1
				C175.8,118.4,175.3,117.3,174.2,116.8z M168.5,135.9c0.6-0.9,0.4-2.2-0.5-2.8c-0.9-0.6-2.2-0.4-2.8,0.5c-0.6,0.9-0.4,2.2,0.5,2.8
				C166.6,137,167.8,136.8,168.5,135.9z M159.2,149.4c0.8-0.8,0.8-2.1,0-2.9c-0.8-0.8-2.1-0.8-2.9,0c-0.8,0.8-0.8,2.1,0,2.9
				C157.1,150.2,158.4,150.2,159.2,149.4z M144.8,158c-0.9,0.6-1.2,1.9-0.6,2.8c0.6,0.9,1.9,1.2,2.8,0.6c0.9-0.6,1.2-1.9,0.6-2.8
				C147,157.7,145.8,157.4,144.8,158z"/>
		</defs>
		<linearGradient id="SVGID_2_" gradientUnits="userSpaceOnUse" x1="102.4041" y1="95.4509" x2="187.0968" y2="95.4509">
			<stop  offset="0" style="stop-color:#EA5B0C"/>
			<stop  offset="1" style="stop-color:#FFFFFF"/>
		</linearGradient>
		<use xlink:href="#SVGID_1_"  style="overflow:visible;fill:url(#SVGID_2_);"/>
		<clipPath id="SVGID_3_">
			<use xlink:href="#SVGID_1_"  style="overflow:visible;"/>
		</clipPath>
	</g>
	<g>
		<path class="st2" d="M102.6,65.9c-0.8,2.8-3.7,4.4-6.4,3.6c-2.8-0.8-4.4-3.7-3.6-6.4c0.8-2.8,3.7-4.4,6.4-3.6
			C101.7,60.2,103.3,63.1,102.6,65.9"/>
		<path class="st2" d="M90.4,124.7c0.3-2.9,2.8-5,5.7-4.7c2.9,0.3,5,2.8,4.7,5.7c-0.3,2.9-2.8,5-5.7,4.7
			C92.3,130.1,90.2,127.5,90.4,124.7"/>
		<path class="st2" d="M79.1,121.1c1.3-2.6,4.5-3.5,7.1-2.2c2.6,1.4,3.5,4.5,2.2,7.1c-1.3,2.6-4.5,3.5-7.1,2.2
			C78.8,126.8,77.8,123.6,79.1,121.1"/>
		<path class="st2" d="M69.8,113c2.3-1.8,5.5-1.4,7.3,0.8c1.8,2.3,1.4,5.5-0.8,7.3c-2.3,1.8-5.5,1.4-7.3-0.8
			C67.2,118,67.5,114.8,69.8,113"/>
		<path class="st2" d="M64.5,101.9c2.8-0.8,5.7,0.9,6.4,3.7c0.7,2.8-0.9,5.7-3.7,6.4c-2.8,0.8-5.7-0.9-6.4-3.7
			C60.1,105.5,61.7,102.6,64.5,101.9"/>
		<path class="st2" d="M64,90.1c2.9,0.4,4.9,3,4.5,5.9c-0.4,2.9-3,4.9-5.9,4.5c-2.9-0.4-4.9-3-4.5-5.9C58.5,91.7,61.1,89.7,64,90.1"
			/>
		<path class="st2" d="M68.3,78.6c2.5,1.5,3.3,4.7,1.8,7.2c-1.5,2.5-4.7,3.3-7.2,1.8c-2.5-1.5-3.3-4.7-1.8-7.2
			C62.6,78,65.8,77.2,68.3,78.6"/>
		<path class="st2" d="M76.8,69.8c1.7,2.3,1.1,5.6-1.2,7.3c-2.4,1.7-5.6,1.1-7.3-1.2c-1.7-2.3-1.1-5.6,1.2-7.3
			C71.8,66.9,75.1,67.5,76.8,69.8"/>
		<path class="st2" d="M89.4,64.9c0.5,2.8-1.4,5.5-4.3,6c-2.8,0.5-5.5-1.4-6-4.3c-0.5-2.8,1.4-5.5,4.3-6C86.3,60.1,89,62,89.4,64.9"
			/>
		<path class="st2" d="M98.4,138.5c0,2.5-2,4.5-4.5,4.5c-2.5,0-4.5-2-4.5-4.5c0-2.5,2-4.5,4.5-4.5C96.3,134,98.4,136,98.4,138.5"/>
		<path class="st2" d="M111.9,134.8c0.8,2.4-0.5,4.9-2.8,5.7c-2.4,0.8-4.9-0.5-5.7-2.8c-0.8-2.3,0.5-4.9,2.8-5.7
			C108.6,131.2,111.1,132.4,111.9,134.8"/>
		<path class="st2" d="M89.1,51.5c0.1-2.5,2.1-4.4,4.6-4.3c2.5,0.1,4.4,2.2,4.3,4.6c-0.1,2.5-2.2,4.4-4.6,4.3
			C91,56.1,89,54,89.1,51.5"/>
		<path class="st2" d="M102.4,51.9c0.8-2.3,3.3-3.6,5.7-2.8c2.4,0.8,3.6,3.3,2.8,5.7c-0.8,2.3-3.3,3.6-5.7,2.8
			C102.9,56.8,101.6,54.2,102.4,51.9"/>
		<path class="st2" d="M75.9,55.2c-0.7-2.4,0.6-4.9,3-5.6c2.4-0.7,4.9,0.6,5.6,3c0.7,2.4-0.6,4.9-3,5.6
			C79.1,58.9,76.6,57.6,75.9,55.2"/>
		<path class="st2" d="M63.8,63.5c-1.5-2-1.1-4.8,0.9-6.3c2-1.5,4.8-1.1,6.3,0.9c1.5,2,1.1,4.8-0.9,6.3
			C68.1,65.9,65.3,65.5,63.8,63.5"/>
		<path class="st2" d="M51.1,86.4c-2.3-0.8-3.6-3.4-2.8-5.7c0.8-2.3,3.4-3.6,5.7-2.8c2.3,0.8,3.6,3.4,2.8,5.7
			C56,85.9,53.4,87.2,51.1,86.4"/>
		<path class="st2" d="M55.4,73.7c-2-1.4-2.6-4.2-1.2-6.2c1.4-2,4.2-2.6,6.2-1.2c2,1.4,2.6,4.2,1.2,6.2
			C60.2,74.6,57.4,75.1,55.4,73.7"/>
		<path class="st2" d="M50.3,99.8c-2.5-0.1-4.4-2.2-4.3-4.6c0.1-2.5,2.2-4.4,4.6-4.3c2.5,0.1,4.4,2.2,4.3,4.6
			C54.9,98,52.8,99.9,50.3,99.8"/>
		<path class="st2" d="M53.9,113.2c-2.4,0.7-4.9-0.7-5.6-3c-0.7-2.4,0.7-4.9,3-5.6c2.4-0.7,4.9,0.7,5.6,3
			C57.6,110,56.2,112.5,53.9,113.2"/>
		<path class="st2" d="M61.6,124.7c-2,1.5-4.8,1-6.3-1c-1.5-2-1-4.8,1-6.3c2-1.5,4.8-1,6.3,1C64,120.4,63.6,123.2,61.6,124.7"/>
		<path class="st2" d="M83.4,137.7c-0.9,2.3-3.4,3.5-5.8,2.7c-2.3-0.9-3.5-3.4-2.7-5.8c0.9-2.3,3.4-3.5,5.8-2.7
			C83,132.8,84.2,135.4,83.4,137.7"/>
		<path class="st2" d="M72.1,133.1c-1.4,2-4.2,2.5-6.3,1.1c-2-1.4-2.5-4.2-1.1-6.3c1.4-2,4.2-2.5,6.3-1.1
			C73,128.3,73.5,131.1,72.1,133.1"/>
		<path class="st2" d="M97.8,40.1c0,2.2-1.7,3.9-3.9,3.9c-2.2,0-3.9-1.7-3.9-3.9c0-2.2,1.7-3.9,3.9-3.9C96,36.1,97.8,37.9,97.8,40.1
			"/>
		<path class="st2" d="M108.4,41.9c-0.4,2.1-2.5,3.5-4.6,3.1c-2.1-0.4-3.5-2.5-3.1-4.6c0.4-2.1,2.5-3.5,4.6-3.1
			C107.5,37.7,108.9,39.8,108.4,41.9"/>
		<path class="st2" d="M118,45.6c-0.8,2-3.1,3-5.1,2.2c-2-0.8-3-3.1-2.2-5.1c0.8-2,3.1-3,5.1-2.2C117.9,41.3,118.8,43.6,118,45.6"/>
		<path class="st2" d="M38.8,91.3c2.2,0,3.9,1.7,3.9,3.9c0,2.2-1.7,3.9-3.9,3.9c-2.2,0-3.9-1.7-3.9-3.9C34.9,93,36.7,91.3,38.8,91.3
			"/>
		<path class="st2" d="M40.6,80.6c2.1,0.4,3.5,2.5,3.1,4.6c-0.4,2.1-2.5,3.5-4.6,3.1c-2.1-0.4-3.5-2.5-3.1-4.6
			C36.4,81.6,38.5,80.2,40.6,80.6"/>
		<path class="st2" d="M44.2,71c2,0.8,3,3.1,2.2,5.1c-0.8,2-3.1,3-5.1,2.2c-2-0.8-3-3.1-2.2-5.1C39.9,71.2,42.2,70.2,44.2,71"/>
		<path class="st2" d="M50.2,61.2c1.8,1.2,2.3,3.6,1.1,5.4c-1.2,1.8-3.6,2.3-5.4,1.1c-1.8-1.2-2.3-3.6-1.1-5.4
			C46,60.5,48.4,60,50.2,61.2"/>
		<path class="st2" d="M57.4,53.6c1.5,1.5,1.6,4,0.1,5.5c-1.5,1.5-4,1.6-5.5,0.1c-1.5-1.5-1.6-4-0.1-5.5
			C53.4,52.1,55.9,52.1,57.4,53.6"/>
		<path class="st2" d="M66.3,47.2c1.2,1.8,0.7,4.2-1.1,5.4c-1.8,1.2-4.2,0.7-5.4-1.1c-1.2-1.8-0.7-4.2,1.1-5.4
			C62.7,44.9,65.1,45.4,66.3,47.2"/>
		<path class="st2" d="M75.3,43.1c0.9,2,0,4.3-2,5.2c-2,0.9-4.3,0-5.1-2c-0.9-2,0-4.3,2-5.2C72.2,40.2,74.5,41.1,75.3,43.1"/>
		<path class="st2" d="M86,40.6c0.5,2.1-0.8,4.2-2.9,4.7c-2.1,0.5-4.2-0.8-4.7-2.9c-0.5-2.1,0.8-4.2,2.9-4.7
			C83.4,37.2,85.5,38.5,86,40.6"/>
		<path class="st2" d="M90.1,149.8c0-2.2,1.7-3.9,3.9-3.9c2.2,0,3.9,1.7,3.9,3.9c0,2.2-1.7,3.9-3.9,3.9
			C91.8,153.7,90.1,151.9,90.1,149.8"/>
		<path class="st2" d="M79.4,148c0.4-2.1,2.5-3.5,4.6-3.1c2.1,0.4,3.5,2.5,3.1,4.6c-0.4,2.1-2.5,3.5-4.6,3.1
			C80.4,152.2,79,150.1,79.4,148"/>
		<path class="st2" d="M69.8,144.4c0.8-2,3.1-3,5.1-2.2c2,0.8,3,3.1,2.2,5.1c-0.8,2-3.1,3-5.1,2.2C70,148.7,69,146.4,69.8,144.4"/>
		<path class="st2" d="M60,138.4c1.2-1.8,3.6-2.3,5.4-1.1c1.8,1.2,2.3,3.6,1.1,5.4c-1.2,1.8-3.6,2.3-5.4,1.1
			C59.3,142.6,58.8,140.2,60,138.4"/>
		<path class="st2" d="M52.4,131.2c1.5-1.5,4-1.6,5.5-0.1c1.5,1.5,1.6,4,0.1,5.5c-1.5,1.5-4,1.6-5.5,0.1
			C50.9,135.2,50.9,132.8,52.4,131.2"/>
		<path class="st2" d="M46,122.3c1.8-1.2,4.2-0.7,5.4,1.1c1.2,1.8,0.7,4.2-1.1,5.4c-1.8,1.2-4.2,0.7-5.4-1.1
			C43.7,125.9,44.2,123.5,46,122.3"/>
		<path class="st2" d="M41.9,113.3c2-0.9,4.3,0,5.1,2c0.9,2,0,4.3-2,5.1c-2,0.9-4.3,0-5.1-2C39,116.4,39.9,114.1,41.9,113.3"/>
		<path class="st2" d="M39.4,102.6c2.1-0.5,4.2,0.8,4.7,2.9c0.5,2.1-0.8,4.2-2.9,4.7c-2.1,0.5-4.2-0.8-4.7-2.9
			C36,105.2,37.3,103.1,39.4,102.6"/>
		<path class="st2" d="M111.3,147c-0.8-2,0.1-4.3,2.1-5.1c2-0.8,4.3,0.1,5.1,2.1c0.8,2-0.1,4.3-2.1,5.1
			C114.4,149.9,112.2,149,111.3,147"/>
		<path class="st2" d="M100.6,149.3c-0.5-2.1,0.8-4.2,3-4.7c2.1-0.5,4.2,0.9,4.7,3c0.5,2.1-0.8,4.2-3,4.7
			C103.2,152.7,101.1,151.4,100.6,149.3"/>
		<path class="st2" d="M90,30.8c0,1.8-1.5,3.3-3.3,3.3c-1.8,0-3.3-1.5-3.3-3.3c0-1.8,1.5-3.3,3.3-3.3C88.5,27.5,90,29,90,30.8"/>
		<path class="st2" d="M104.8,31.7c-0.4,1.8-2.2,2.9-4,2.5c-1.8-0.4-2.9-2.2-2.5-4c0.4-1.8,2.2-2.9,4-2.5
			C104.2,28.1,105.3,29.9,104.8,31.7"/>
		<path class="st2" d="M116.4,35c-0.7,1.7-2.7,2.4-4.4,1.7c-1.7-0.7-2.4-2.7-1.7-4.4c0.8-1.7,2.7-2.4,4.4-1.7
			C116.4,31.3,117.2,33.3,116.4,35"/>
		<path class="st2" d="M126.7,40c-1,1.5-3.1,1.9-4.6,0.9c-1.5-1-1.9-3.1-0.9-4.6c1-1.5,3.1-1.9,4.6-0.9
			C127.3,36.4,127.7,38.5,126.7,40"/>
		<path class="st2" d="M120.8,153c-0.7-1.7,0.1-3.6,1.8-4.3c1.7-0.7,3.6,0.1,4.3,1.8c0.7,1.7-0.1,3.6-1.8,4.3
			C123.5,155.5,121.5,154.7,120.8,153"/>
		<path class="st2" d="M109.2,157.2c-0.4-1.8,0.8-3.6,2.6-3.9c1.8-0.4,3.6,0.8,3.9,2.6c0.4,1.8-0.8,3.6-2.6,3.9
			C111.3,160.1,109.6,159,109.2,157.2"/>
		<path class="st2" d="M97.3,159c0-1.8,1.5-3.3,3.3-3.3c1.8,0,3.3,1.5,3.3,3.3c0,1.8-1.5,3.3-3.3,3.3
			C98.8,162.3,97.3,160.8,97.3,159"/>
		<path class="st2" d="M83,158.3c0.4-1.8,2.2-2.9,4-2.5c1.8,0.4,2.9,2.2,2.5,4c-0.4,1.8-2.2,2.9-4,2.5
			C83.7,161.8,82.6,160.1,83,158.3"/>
		<path class="st2" d="M72.5,155.6c0.7-1.7,2.6-2.5,4.3-1.8c1.7,0.7,2.5,2.6,1.8,4.3c-0.7,1.7-2.6,2.5-4.3,1.8
			C72.7,159.3,71.8,157.3,72.5,155.6"/>
		<path class="st2" d="M58.8,149c1.1-1.5,3.2-1.8,4.6-0.8c1.5,1.1,1.8,3.2,0.8,4.6c-1.1,1.5-3.2,1.8-4.6,0.8
			C58.1,152.6,57.7,150.5,58.8,149"/>
		<path class="st2" d="M50,142.2c1.3-1.3,3.4-1.3,4.7,0.1c1.3,1.3,1.3,3.4-0.1,4.7c-1.3,1.3-3.4,1.3-4.7,0
			C48.7,145.6,48.7,143.5,50,142.2"/>
		<path class="st2" d="M41.7,132.9c1.5-1,3.6-0.6,4.6,1c1,1.5,0.6,3.6-1,4.6c-1.5,1-3.6,0.6-4.6-1C39.7,136,40.2,134,41.7,132.9"/>
		<path class="st2" d="M35.8,123.2c1.7-0.7,3.7,0.1,4.4,1.8c0.7,1.7-0.1,3.6-1.8,4.4c-1.7,0.7-3.6-0.1-4.4-1.8
			C33.3,125.8,34.1,123.9,35.8,123.2"/>
		<path class="st2" d="M31.8,113c1.8-0.4,3.6,0.7,4,2.5c0.4,1.8-0.7,3.6-2.5,4c-1.8,0.4-3.6-0.7-4-2.5C28.9,115.2,30,113.4,31.8,113
			"/>
		<path class="st2" d="M29.4,99.2c1.8,0,3.4,1.4,3.4,3.3c0,1.8-1.4,3.3-3.3,3.4c-1.8,0-3.3-1.5-3.4-3.3
			C26.1,100.7,27.5,99.2,29.4,99.2"/>
		<path class="st2" d="M29.9,85.8c1.8,0.4,3,2.1,2.6,3.9c-0.4,1.8-2.1,3-3.9,2.6c-1.8-0.4-3-2.1-2.6-3.9
			C26.3,86.6,28.1,85.4,29.9,85.8"/>
		<path class="st2" d="M33,73.3c1.7,0.7,2.5,2.7,1.8,4.4c-0.7,1.7-2.7,2.5-4.4,1.8c-1.7-0.7-2.5-2.7-1.8-4.4
			C29.3,73.4,31.3,72.6,33,73.3"/>
		<path class="st2" d="M38.5,61.6c1.5,1,1.9,3.1,0.9,4.6c-1,1.5-3.1,1.9-4.6,0.9c-1.5-1-1.9-3.1-0.9-4.6C34.9,61,37,60.6,38.5,61.6"
			/>
		<path class="st2" d="M46.6,51c1.3,1.3,1.2,3.4-0.1,4.7c-1.3,1.3-3.4,1.2-4.7-0.1c-1.3-1.3-1.2-3.4,0.1-4.7
			C43.2,49.6,45.3,49.6,46.6,51"/>
		<path class="st2" d="M55.4,43.1c1,1.5,0.6,3.6-1,4.6c-1.5,1-3.6,0.6-4.6-1c-1-1.5-0.6-3.6,1-4.6C52.4,41.2,54.4,41.6,55.4,43.1"/>
		<path class="st2" d="M65.5,37.1c0.7,1.7-0.1,3.7-1.8,4.4c-1.7,0.7-3.6-0.1-4.4-1.8c-0.7-1.7,0.1-3.6,1.8-4.4
			C62.8,34.6,64.8,35.4,65.5,37.1"/>
		<path class="st2" d="M77.4,32.7c0.4,1.8-0.8,3.6-2.6,3.9c-1.8,0.4-3.6-0.8-3.9-2.6c-0.4-1.8,0.8-3.6,2.6-3.9
			C75.3,29.8,77,30.9,77.4,32.7"/>
		<path class="st2" d="M81.9,21.2c0.3,1.7-0.8,3.4-2.5,3.7c-1.7,0.3-3.4-0.8-3.7-2.5c-0.3-1.7,0.8-3.4,2.5-3.7
			C79.8,18.4,81.5,19.5,81.9,21.2"/>
		<path class="st2" d="M97.1,20.3c0,1.8-1.4,3.2-3.2,3.1c-1.8,0-3.2-1.4-3.1-3.2c0-1.8,1.4-3.2,3.2-3.1
			C95.7,17.1,97.1,18.6,97.1,20.3"/>
		<path class="st2" d="M114.4,23.2c-0.4,1.7-2.1,2.7-3.8,2.3c-1.7-0.4-2.7-2.1-2.3-3.8c0.4-1.7,2.1-2.7,3.8-2.3
			C113.8,19.8,114.8,21.5,114.4,23.2"/>
		<path class="st2" d="M126.2,27.7c-0.7,1.6-2.6,2.3-4.2,1.6c-1.6-0.7-2.3-2.6-1.6-4.2c0.7-1.6,2.6-2.3,4.2-1.6
			C126.2,24.2,126.9,26.1,126.2,27.7"/>
		<path class="st2" d="M118.8,165.2c-0.6-1.6,0.1-3.5,1.8-4.1c1.6-0.6,3.5,0.1,4.1,1.8c0.6,1.6-0.1,3.5-1.8,4.1
			C121.3,167.7,119.4,166.9,118.8,165.2"/>
		<path class="st2" d="M105.2,168.7c-0.3-1.7,0.8-3.4,2.5-3.7c1.7-0.3,3.4,0.8,3.7,2.5c0.3,1.7-0.8,3.4-2.5,3.7
			C107.2,171.5,105.5,170.4,105.2,168.7"/>
		<path class="st2" d="M89.3,169.4c0-1.8,1.5-3.1,3.2-3.1c1.8,0,3.1,1.5,3.1,3.2c0,1.7-1.5,3.1-3.2,3.1
			C90.6,172.6,89.2,171.2,89.3,169.4"/>
		<path class="st2" d="M75,167.2c0.4-1.7,2.1-2.8,3.8-2.4c1.7,0.4,2.8,2.1,2.4,3.8c-0.4,1.7-2.1,2.8-3.8,2.4
			C75.7,170.6,74.7,168.9,75,167.2"/>
		<path class="st2" d="M61,162c0.7-1.6,2.6-2.3,4.2-1.6c1.6,0.7,2.3,2.6,1.6,4.2c-0.7,1.6-2.6,2.3-4.2,1.6
			C61,165.5,60.3,163.6,61,162"/>
		<path class="st2" d="M46.7,152.9c1-1.4,3-1.7,4.4-0.6c1.4,1,1.7,3,0.6,4.4c-1,1.4-3,1.7-4.4,0.6C46,156.3,45.7,154.3,46.7,152.9"
			/>
		<path class="st2" d="M38.2,144.8c1.3-1.2,3.3-1.2,4.5,0.1c1.2,1.2,1.2,3.3-0.1,4.5c-1.3,1.2-3.3,1.2-4.5-0.1
			C36.9,148,36.9,146,38.2,144.8"/>
		<path class="st2" d="M29.7,133.3c1.5-1,3.4-0.5,4.4,0.9c1,1.5,0.5,3.4-0.9,4.4c-1.5,1-3.4,0.5-4.4-0.9
			C27.8,136.3,28.2,134.3,29.7,133.3"/>
		<path class="st2" d="M24.3,122.3c1.6-0.7,3.5,0,4.2,1.6c0.7,1.6,0,3.5-1.6,4.2c-1.6,0.7-3.5,0-4.2-1.6
			C21.9,124.9,22.7,123,24.3,122.3"/>
		<path class="st2" d="M20.2,108.1c1.7-0.4,3.4,0.7,3.8,2.4c0.4,1.7-0.7,3.4-2.4,3.8c-1.7,0.4-3.4-0.7-3.8-2.4
			C17.4,110.1,18.5,108.4,20.2,108.1"/>
		<path class="st2" d="M19.1,92.6c1.7,0,3.2,1.4,3.2,3.1c0,1.7-1.4,3.2-3.1,3.2c-1.8,0-3.2-1.4-3.2-3.1C15.9,94,17.3,92.6,19.1,92.6
			"/>
		<path class="st2" d="M21.1,77.5c1.7,0.3,2.8,2,2.5,3.7c-0.3,1.7-2,2.8-3.7,2.5c-1.7-0.3-2.8-2-2.5-3.7
			C17.7,78.2,19.4,77.1,21.1,77.5"/>
		<path class="st2" d="M25.8,63.8c1.6,0.7,2.4,2.5,1.7,4.1c-0.7,1.6-2.5,2.4-4.1,1.7c-1.6-0.7-2.4-2.5-1.7-4.1
			C22.4,63.9,24.2,63.2,25.8,63.8"/>
		<path class="st2" d="M33.1,51.2c1.5,1,1.9,2.9,0.9,4.4c-1,1.5-2.9,1.9-4.4,0.9c-1.5-1-1.9-2.9-0.9-4.4
			C29.7,50.7,31.7,50.3,33.1,51.2"/>
		<path class="st2" d="M44.2,39c1.2,1.3,1.2,3.3-0.1,4.5c-1.3,1.2-3.3,1.2-4.5-0.1c-1.2-1.3-1.2-3.3,0.1-4.5
			C41,37.7,43,37.7,44.2,39"/>
		<path class="st2" d="M54.9,31.1c1,1.5,0.6,3.4-0.9,4.4c-1.5,1-3.4,0.6-4.4-0.9c-1-1.5-0.6-3.4,0.9-4.4
			C52,29.3,53.9,29.7,54.9,31.1"/>
		<path class="st2" d="M67.8,24.9c0.7,1.6-0.1,3.5-1.7,4.1c-1.6,0.7-3.5-0.1-4.1-1.7c-0.7-1.6,0.1-3.5,1.7-4.1
			C65.3,22.5,67.2,23.3,67.8,24.9"/>
		<path class="st2" d="M87.4,12.1c0,1.1-0.9,2-2,2c-1.1,0-2-0.9-2-2c0-1.1,0.9-2,2-2C86.4,10.1,87.4,11,87.4,12.1"/>
		<path class="st2" d="M95.1,3.2c0,0.9-0.7,1.6-1.6,1.6c-0.9,0-1.6-0.7-1.6-1.6c0-0.9,0.7-1.6,1.6-1.6C94.3,1.5,95.1,2.3,95.1,3.2"
			/>
		<path class="st2" d="M116.7,6.1c-0.2,0.9-1.1,1.4-2,1.2c-0.9-0.2-1.4-1.1-1.2-2c0.2-0.9,1.1-1.4,2-1.2
			C116.4,4.3,116.9,5.2,116.7,6.1"/>
		<path class="st2" d="M133.4,12.1c-0.4,0.8-1.3,1.2-2.2,0.8c-0.8-0.4-1.2-1.3-0.8-2.2c0.4-0.8,1.3-1.2,2.1-0.8
			C133.4,10.4,133.7,11.3,133.4,12.1"/>
		<path class="st2" d="M125.8,180.9c-0.3-0.8,0.1-1.8,0.9-2.1c0.8-0.3,1.8,0.1,2.1,0.9c0.3,0.8-0.1,1.8-0.9,2.1
			C127.1,182.1,126.1,181.7,125.8,180.9"/>
		<path class="st2" d="M109.1,185.4c-0.2-0.9,0.4-1.7,1.3-1.9c0.9-0.2,1.7,0.4,1.9,1.3c0.2,0.9-0.4,1.7-1.3,1.9
			C110.1,186.9,109.2,186.3,109.1,185.4"/>
		<path class="st2" d="M90,186.6c0-0.9,0.8-1.6,1.7-1.6c0.9,0,1.6,0.8,1.6,1.7c0,0.9-0.8,1.6-1.7,1.6C90.7,188.2,90,187.5,90,186.6"
			/>
		<path class="st2" d="M70.8,183.8c0.2-0.9,1.1-1.4,2-1.2c0.9,0.2,1.4,1.1,1.2,2c-0.2,0.9-1.1,1.4-2,1.2
			C71.2,185.5,70.6,184.6,70.8,183.8"/>
		<path class="st2" d="M53.9,177.6c0.4-0.8,1.3-1.2,2.1-0.8c0.8,0.4,1.2,1.3,0.8,2.2c-0.4,0.8-1.3,1.2-2.2,0.8
			C53.8,179.4,53.5,178.4,53.9,177.6"/>
		<path class="st2" d="M37.5,167.5c0.5-0.7,1.6-0.9,2.3-0.3c0.7,0.5,0.9,1.6,0.3,2.3c-0.5,0.7-1.6,0.9-2.3,0.3
			C37.1,169.2,37,168.2,37.5,167.5"/>
		<path class="st2" d="M25.6,156.4c0.7-0.6,1.7-0.6,2.3,0.1c0.6,0.7,0.6,1.7-0.1,2.3c-0.7,0.6-1.7,0.6-2.3-0.1
			C24.9,158,24.9,157,25.6,156.4"/>
		<path class="st2" d="M16,143.7c0.8-0.5,1.8-0.3,2.2,0.5c0.5,0.8,0.3,1.8-0.5,2.2c-0.8,0.5-1.8,0.3-2.2-0.5
			C15.1,145.2,15.3,144.2,16,143.7"/>
		<path class="st2" d="M9.4,131.1c0.8-0.4,1.8,0,2.1,0.8c0.4,0.8,0,1.8-0.8,2.1c-0.8,0.4-1.8,0-2.1-0.8
			C8.2,132.4,8.6,131.5,9.4,131.1"/>
		<path class="st2" d="M4.1,114.7c0.9-0.2,1.7,0.3,2,1.2c0.2,0.9-0.3,1.7-1.2,2c-0.9,0.2-1.7-0.3-1.9-1.2
			C2.7,115.8,3.2,114.9,4.1,114.7"/>
		<path class="st2" d="M2,94.5c0.9,0,1.6,0.7,1.6,1.6c0,0.9-0.7,1.6-1.6,1.6c-0.9,0-1.6-0.7-1.6-1.6C0.3,95.2,1.1,94.5,2,94.5"/>
		<path class="st2" d="M3.6,77.4c0.9,0.2,1.5,1,1.3,1.9c-0.2,0.9-1,1.5-1.9,1.3c-0.9-0.2-1.5-1-1.3-1.9C1.9,77.8,2.8,77.2,3.6,77.4"
			/>
		<path class="st2" d="M9.2,59.1c0.8,0.3,1.2,1.3,0.9,2.1C9.8,62,8.8,62.4,8,62.1c-0.8-0.3-1.2-1.3-0.9-2.1
			C7.5,59.1,8.4,58.7,9.2,59.1"/>
		<path class="st2" d="M18.3,42.6c0.7,0.5,0.9,1.5,0.4,2.2c-0.5,0.7-1.5,0.9-2.2,0.4c-0.7-0.5-0.9-1.5-0.4-2.2
			C16.6,42.3,17.6,42.1,18.3,42.6"/>
		<path class="st2" d="M30.6,28.3c0.6,0.6,0.6,1.7,0,2.3c-0.6,0.6-1.7,0.6-2.3,0c-0.6-0.6-0.6-1.7,0-2.3C29,27.6,30,27.6,30.6,28.3"
			/>
		<path class="st2" d="M44.8,17.3c0.5,0.8,0.3,1.8-0.5,2.2c-0.8,0.5-1.8,0.3-2.2-0.5c-0.5-0.8-0.3-1.8,0.5-2.2
			C43.3,16.3,44.3,16.5,44.8,17.3"/>
		<path class="st2" d="M61.4,9c0.3,0.8-0.1,1.8-0.9,2.1c-0.8,0.3-1.8-0.1-2.1-0.9c-0.3-0.8,0.1-1.8,0.9-2.1
			C60.2,7.8,61.1,8.2,61.4,9"/>
		<path class="st2" d="M76.8,4.7c0.2,0.9-0.4,1.7-1.3,1.9c-0.9,0.2-1.7-0.4-1.9-1.3c-0.2-0.9,0.4-1.7,1.3-1.9
			C75.7,3.3,76.6,3.8,76.8,4.7"/>
		<path class="st2" d="M106,12.8c-0.3,1.1-1.3,1.8-2.4,1.5c-1.1-0.3-1.8-1.3-1.5-2.4c0.2-1.1,1.3-1.8,2.4-1.5
			C105.6,10.6,106.3,11.7,106,12.8"/>
		<path class="st2" d="M122.7,17.1c-0.5,1-1.7,1.5-2.7,1c-1-0.5-1.5-1.7-1-2.7c0.5-1,1.7-1.5,2.7-1
			C122.7,14.9,123.2,16.1,122.7,17.1"/>
		<path class="st2" d="M135.7,23.3c-0.6,0.9-1.9,1.1-2.8,0.5c-0.9-0.6-1.1-1.9-0.5-2.8c0.6-0.9,1.9-1.1,2.8-0.5
			C136.1,21.1,136.3,22.3,135.7,23.3"/>
		<path class="st2" d="M131.1,169.1c-0.4-1,0.1-2.2,1.1-2.6c1-0.4,2.2,0.1,2.6,1.1c0.4,1-0.1,2.2-1.1,2.6
			C132.7,170.6,131.5,170.1,131.1,169.1"/>
		<path class="st2" d="M116.1,174.9c-0.2-1.1,0.5-2.2,1.6-2.4c1.1-0.2,2.2,0.5,2.4,1.6c0.2,1.1-0.5,2.2-1.6,2.4
			C117.3,176.7,116.3,176,116.1,174.9"/>
		<path class="st2" d="M98.9,177.8c0-1.1,0.9-2,2.1-2c1.1,0,2,0.9,2,2.1c0,1.1-0.9,2-2.1,2C99.7,179.8,98.8,178.9,98.9,177.8"/>
		<path class="st2" d="M80.7,176.9c0.3-1.1,1.4-1.8,2.4-1.5c1.1,0.3,1.8,1.4,1.5,2.4c-0.3,1.1-1.3,1.8-2.4,1.5
			C81.1,179.1,80.5,178,80.7,176.9"/>
		<path class="st2" d="M66.2,173.2c0.5-1,1.7-1.5,2.7-1c1,0.5,1.5,1.7,1,2.7c-0.4,1-1.6,1.5-2.7,1C66.2,175.5,65.7,174.3,66.2,173.2
			"/>
		<path class="st2" d="M49.8,165.4c0.7-0.9,1.9-1.1,2.8-0.4c0.9,0.7,1.1,1.9,0.4,2.8c-0.7,0.9-1.9,1.1-2.8,0.4
			C49.3,167.6,49.2,166.3,49.8,165.4"/>
		<path class="st2" d="M37.2,155.7c0.8-0.8,2.1-0.7,2.9,0.1c0.8,0.8,0.7,2.1-0.1,2.9c-0.8,0.8-2.1,0.7-2.9-0.1
			C36.3,157.8,36.4,156.5,37.2,155.7"/>
		<path class="st2" d="M27.5,145c0.9-0.6,2.2-0.3,2.8,0.6c0.6,0.9,0.3,2.2-0.6,2.8c-0.9,0.6-2.2,0.3-2.8-0.6
			C26.3,146.9,26.6,145.6,27.5,145"/>
		<path class="st2" d="M20,133.2c1-0.4,2.2,0,2.7,1.1c0.4,1,0,2.2-1.1,2.7c-1,0.4-2.2,0-2.7-1.1C18.5,134.8,19,133.6,20,133.2"/>
		<path class="st2" d="M14.3,119.1c1.1-0.2,2.2,0.4,2.4,1.5c0.2,1.1-0.4,2.2-1.5,2.4c-1.1,0.2-2.2-0.4-2.4-1.5
			C12.5,120.5,13.2,119.4,14.3,119.1"/>
		<path class="st2" d="M10.9,101.3c1.1,0,2,0.9,2,2c0,1.1-0.9,2-2,2c-1.1,0-2-0.9-2-2C8.9,102.2,9.8,101.3,10.9,101.3"/>
		<path class="st2" d="M11.2,85.6c1.1,0.2,1.8,1.3,1.6,2.4c-0.2,1.1-1.3,1.8-2.4,1.6c-1.1-0.2-1.8-1.3-1.6-2.4
			C9.1,86.1,10.1,85.4,11.2,85.6"/>
		<path class="st2" d="M14.7,69.4c1,0.4,1.5,1.6,1.1,2.6c-0.4,1-1.6,1.5-2.6,1.1c-1-0.4-1.5-1.6-1.1-2.6
			C12.5,69.4,13.7,68.9,14.7,69.4"/>
		<path class="st2" d="M21.4,54.2c0.9,0.6,1.2,1.9,0.6,2.8c-0.6,0.9-1.9,1.2-2.8,0.6c-0.9-0.6-1.2-1.9-0.6-2.8
			C19.2,53.8,20.4,53.6,21.4,54.2"/>
		<path class="st2" d="M31.7,39.7c0.8,0.8,0.8,2.1-0.1,2.9c-0.8,0.8-2.1,0.8-2.9-0.1c-0.8-0.8-0.8-2.1,0-2.9
			C29.6,38.9,30.9,38.9,31.7,39.7"/>
		<path class="st2" d="M43.8,28.6c0.6,0.9,0.3,2.2-0.6,2.8c-0.9,0.6-2.2,0.3-2.8-0.6c-0.6-0.9-0.3-2.2,0.6-2.8
			C41.9,27.3,43.2,27.6,43.8,28.6"/>
		<path class="st2" d="M57,20.4c0.4,1-0.1,2.2-1.1,2.6c-1,0.4-2.2-0.1-2.6-1.1c-0.4-1,0.1-2.2,1.1-2.6C55.4,18.9,56.6,19.4,57,20.4"
			/>
		<path class="st2" d="M72.2,14.7c0.2,1.1-0.5,2.2-1.6,2.4c-1.1,0.2-2.2-0.5-2.4-1.6c-0.2-1.1,0.5-2.2,1.6-2.4
			C71,12.9,72,13.6,72.2,14.7"/>
	</g>
	<g>
		<path d="M114.8,105.7c-5.1,6.9-11.7,10.5-20.1,10.5c-10.8,0-21.2-6.9-21.2-22c0-13.9,8.9-21.7,20.6-21.7c10.9,0,15.4,6.5,16.3,7.8
			c3.4,4.8,4.1,12,4.2,16.1H83.9c1.2,6.5,5.2,10.2,11.7,10.2c6.8,0,9.5-4,10.7-5.7L114.8,105.7z M103.5,89.1
			c-0.9-6.4-4.9-8.7-9.2-8.7c-5.3,0-8.9,3.1-10.1,8.7H103.5z"/>
		<path d="M131.8,73.7v5.9c1.2-2.1,4-7,13.2-6.8V83c-2.1,0.1-5.9,0.2-8.9,2.5c-4.2,3.2-4.3,7.4-4.3,14.3V115h-9.6V73.7H131.8z"/>
		<path d="M176.4,88.3c-0.7-2.7-3.6-7-9.3-7c-5.7,0-10.2,4.5-10.2,12.8c0,7.4,3.9,12.9,10.4,12.9c6.3,0,8.7-4.8,9.9-8.1l8.5,4.5
			c-3.2,8.9-11.4,12.9-18.6,12.9c-11.5,0-20.5-8.8-20.5-21.9c0-12.6,9.1-21.9,20.8-21.9c10.4,0,15.7,6.9,17.8,11.7L176.4,88.3z"/>
	</g>
</g>
</svg>
