<?xml version="1.0" encoding="utf-8"?>
<!-- Generator: Adobe Illustrator 21.0.2, SVG Export Plug-In . SVG Version: 6.00 Build 0)  -->
<svg version="1.1" id="Livello_1" xmlns="http://www.w3.org/2000/svg" xmlns:xlink="http://www.w3.org/1999/xlink" x="0px" y="0px"
	 viewBox="0 0 324.9 79.7" style="enable-background:new 0 0 324.9 79.7;" xml:space="preserve">
<style type="text/css">
	.st0{fill:#2884C7;}
	.st1{fill:#FFFFFF;}
	.st2{clip-path:url(#SVGID_2_);fill:#BDCFEB;}
	.st3{fill:#045389;}
	.st4{clip-path:url(#SVGID_4_);fill:#020203;}
	.st5{clip-path:url(#SVGID_4_);fill:#E62533;}
	.st6{clip-path:url(#SVGID_4_);fill:#1166B0;}
	.st7{fill:#05552F;}
</style>
<g>
	<rect x="85.1" y="0.6" class="st0" width="79.3" height="78.9"/>
	<polygon class="st1" points="89.4,33.6 93.6,33.6 93.6,34.8 92.2,34.8 92.2,43 93.6,43 93.6,44.2 89.4,44.2 89.4,43 90.8,43 
		90.8,34.8 89.4,34.8 	"/>
	<path class="st1" d="M98.5,37.3c-0.9,0-2.1,0.9-2.1,3.6v3.3H95v-4c0-1.4-0.1-2.6-0.4-4h1.3l0.2,1.2c0.6-0.8,1.5-1.3,2.5-1.3
		c1.3,0,2,1.2,2,2.6v5.6h-1.4V39C99.3,38.4,99.3,37.3,98.5,37.3"/>
	<path class="st1" d="M104.8,36.1c1.1,0,1.8,0.4,2.7,1l-0.6,1.1c-0.6-0.4-1.3-0.9-2.1-0.9c-0.6,0-1.1,0.4-1.1,1c0,0.7,0.9,1,1.4,1.2
		c1.2,0.4,2.6,1,2.6,2.6c0,1.4-1.2,2.3-2.5,2.3c-1.3,0-2.4-0.6-3.4-1.5l0.8-1.1c0.6,0.7,1.5,1.4,2.5,1.4c0.7,0,1.2-0.4,1.2-1
		c0-0.9-0.8-1.2-1.5-1.4c-1.1-0.4-2.4-1-2.4-2.4C102.3,37,103.5,36.1,104.8,36.1"/>
	<path class="st1" d="M111.6,36.2h2.7v1.2h-2.7v4.2c0,0.6,0,1.5,0.8,1.5c0.8,0,1.3-0.7,1.5-1.4l1.3,0.3c-0.6,1.2-1.4,2.2-2.9,2.2
		c-1.4,0-2.2-0.7-2.2-3v-3.9h-1.7v-1.2h1.7v-2.4h1.4V36.2z"/>
	<path class="st1" d="M117.5,34.4c0-0.6,0.5-1.1,1.1-1.1c0.6,0,1.1,0.5,1.1,1.1c0,0.6-0.5,1.1-1.1,1.1C118,35.5,117.5,35,117.5,34.4
		 M119.3,44.2h-1.4v-6.8h-2.2v-1.2h3.6V44.2z"/>
	<path class="st1" d="M123.6,36.2h2.7v1.2h-2.7v4.2c0,0.6,0,1.5,0.8,1.5c0.8,0,1.3-0.7,1.5-1.4l1.3,0.3c-0.6,1.2-1.4,2.2-2.9,2.2
		c-1.4,0-2.2-0.7-2.2-3v-3.9h-1.7v-1.2h1.7v-2.4h1.4V36.2z"/>
	<path class="st1" d="M130.9,43.2c0.9,0,2.1-1.1,2.1-3.6v-3.3h1.4v3.9c0,1.5,0,2.7,0.4,4.1h-1.3l-0.2-1.2c-0.6,0.7-1.5,1.4-2.4,1.4
		c-1.5,0-2.1-1.3-2.1-2.6v-5.5h1.4v5.2C130.1,42,130,43.2,130.9,43.2"/>
	<path class="st1" d="M138.9,36.2h2.7v1.2h-2.7v4.2c0,0.6,0,1.5,0.8,1.5c0.8,0,1.3-0.7,1.5-1.4l1.3,0.3c-0.6,1.2-1.4,2.2-2.9,2.2
		c-1.4,0-2.2-0.7-2.2-3v-3.9h-1.7v-1.2h1.7v-2.4h1.4V36.2z"/>
	<path class="st1" d="M146.5,37.3c-1,0-1.6,0.7-1.9,2.2h3.7C148.2,38.3,147.5,37.3,146.5,37.3 M149.7,39.9v0.7h-5.1
		c0.1,1.9,1,2.5,2,2.5c0.9,0,1.7-0.4,2.5-0.9l0.6,1.2c-1,0.5-2,0.8-3.1,0.8c-2.4,0-3.3-2.1-3.3-4.1c0-2,1-4.2,3.4-4.2
		C149.3,36.1,149.7,39.1,149.7,39.9"/>
	<path class="st1" d="M94,26.8v-7.6h1.4V27c0,2-1.5,3.1-3,3.1c-1.2,0-3-0.7-3-3.6v-7.2h1.4V27c0,1.4,0.9,1.9,1.6,1.9
		C93.6,28.8,94,28,94,26.8"/>
	<path class="st1" d="M100.4,22.9c-0.9,0-2.1,0.9-2.1,3.6v3.3h-1.4v-4c0-1.4-0.1-2.6-0.4-4h1.3L98,23c0.6-0.8,1.5-1.3,2.5-1.3
		c1.3,0,2,1.2,2,2.6v5.6h-1.4v-5.2C101.2,24,101.2,22.9,100.4,22.9"/>
	<path class="st1" d="M105.5,20.1c0-0.6,0.5-1.1,1.1-1.1c0.6,0,1.1,0.5,1.1,1.1s-0.5,1.1-1.1,1.1C106,21.1,105.5,20.7,105.5,20.1
		 M107.3,29.8h-1.4v-6.8h-2.2v-1.2h3.6V29.8z"/>
	<polygon class="st1" points="111.5,27.5 113.3,21.9 114.7,21.9 112.3,29.9 110.8,29.9 108.3,21.9 109.8,21.9 	"/>
	<path class="st1" d="M118.3,22.9c-1,0-1.6,0.7-1.9,2.2h3.7C120,23.9,119.3,22.9,118.3,22.9 M121.5,25.5v0.7h-5.1
		c0.1,1.9,1,2.5,2,2.5c0.9,0,1.7-0.4,2.5-0.9l0.6,1.2c-1,0.5-2,0.8-3.1,0.8c-2.4,0-3.3-2.1-3.3-4.1c0-2,1-4.2,3.4-4.2
		C121.1,21.7,121.5,24.7,121.5,25.5"/>
	<path class="st1" d="M126.6,22.9c-0.7,0-2.1,1.1-2.1,3.6v3.3h-1.4v-4.6c0-1.2-0.1-2.2-0.3-3.4h1.4l0.2,1.2c0.5-0.8,1.2-1.4,2.3-1.4
		c1.6,0,1.9,1.6,1.9,2.7v0.1h-1.4C127.2,24.1,127.3,22.9,126.6,22.9"/>
	<path class="st1" d="M132.2,21.7c1.1,0,1.8,0.4,2.7,1l-0.6,1.1c-0.6-0.4-1.3-0.9-2.1-0.9c-0.6,0-1.1,0.4-1.1,1c0,0.7,0.9,1,1.4,1.2
		c1.2,0.4,2.6,1,2.6,2.6c0,1.4-1.2,2.3-2.5,2.3c-1.3,0-2.4-0.6-3.4-1.5l0.8-1.1c0.6,0.7,1.5,1.4,2.5,1.4c0.7,0,1.2-0.4,1.2-1
		c0-0.9-0.8-1.2-1.5-1.4c-1.1-0.4-2.4-1-2.4-2.4C129.7,22.7,130.8,21.7,132.2,21.7"/>
	<path class="st1" d="M137.9,20.1c0-0.6,0.5-1.1,1.1-1.1s1.1,0.5,1.1,1.1s-0.5,1.1-1.1,1.1S137.9,20.7,137.9,20.1 M139.7,29.8h-1.4
		v-6.8h-2.2v-1.2h3.6V29.8z"/>
	<path class="st1" d="M144.5,21.9h2.7v1.2h-2.7v4.2c0,0.6,0,1.5,0.8,1.5c0.8,0,1.3-0.7,1.5-1.4l1.3,0.3c-0.6,1.2-1.4,2.2-2.9,2.2
		c-1.4,0-2.2-0.7-2.2-3v-3.9h-1.7v-1.2h1.7v-2.4h1.4V21.9z"/>
	<path class="st1" d="M152.7,26.8l1.9-4.9h1.5l-2.9,7.4c-0.4,1.1-1.1,2.9-2.7,2.9c-1.2,0-1.8-0.9-2.1-1.9l1.2-0.6
		c0.1,0.4,0.4,1.3,1,1.3c0.5,0,0.9-0.8,1-1.2l0.5-1.1l-2.5-6.8h1.5L152.7,26.8z"/>
	<polygon class="st1" points="89.4,4.9 95.1,4.9 95.1,6.1 90.8,6.1 90.8,9.4 93.8,9.4 93.8,10.6 90.8,10.6 90.8,14.3 95.2,14.3 
		95.2,15.5 89.4,15.5 	"/>
	<path class="st1" d="M98.4,14.4c0.9,0,2.1-1.1,2.1-3.6V7.5h1.4v3.9c0,1.5,0,2.7,0.4,4.1h-1.3l-0.2-1.2c-0.6,0.8-1.5,1.4-2.4,1.4
		c-1.5,0-2.1-1.3-2.1-2.6V7.5h1.4v5.2C97.6,13.3,97.5,14.4,98.4,14.4"/>
	<path class="st1" d="M107.5,8.5c-0.7,0-2.1,1.1-2.1,3.6v3.3H104v-4.6c0-1.2-0.1-2.2-0.3-3.4h1.4l0.2,1.2c0.5-0.8,1.2-1.4,2.3-1.4
		c1.6,0,1.9,1.6,1.9,2.7v0.1h-1.4C108.1,9.7,108.2,8.5,107.5,8.5"/>
	<path class="st1" d="M111.7,11.5c0,1.4,0.3,2.9,1.8,2.9c1.5,0,1.8-1.6,1.8-2.9c0-1.4-0.3-3-1.8-3C112,8.5,111.7,10.2,111.7,11.5
		 M116.8,11.5c0,3-1.6,4.1-3.2,4.1c-1.4,0-3.2-1-3.2-4.1c0-3,1.6-4.2,3.2-4.2C116.4,7.3,116.8,10.3,116.8,11.5"/>
	<path class="st1" d="M121.1,8.5c-0.8,0-1.2,0.5-1.5,1.2v4.1c0.4,0.3,0.9,0.6,1.3,0.6c1.1,0,2.1-1,2.1-2.9
		C123,9.1,121.7,8.5,121.1,8.5 M117.8,7.5l1.3-0.2l0.2,0.8c0.5-0.5,0.9-0.7,1.8-0.7c1.4,0,3.2,1.1,3.2,4.2c0,3-2,4.1-3.3,4.1
		c-0.6,0-1-0.1-1.5-0.4v3.1h-1.4v-7.9C118.2,9.4,118.2,8.5,117.8,7.5"/>
	<path class="st1" d="M128.8,8.5c-1,0-1.6,0.7-1.9,2.2h3.7C130.5,9.6,129.9,8.5,128.8,8.5 M132,11.2v0.7h-5.1c0.1,1.9,1,2.5,2,2.5
		c0.9,0,1.7-0.4,2.5-0.9l0.6,1.2c-1,0.5-2,0.8-3.1,0.8c-2.4,0-3.3-2.1-3.3-4.1c0-2,1-4.2,3.4-4.2C131.6,7.4,132,10.4,132,11.2"/>
	<path class="st1" d="M136.9,13.6c0.1-0.1,0.2-0.3,0.3-0.4v-1.6c-0.4-0.2-0.9-0.3-1.3-0.3c-1,0-1.4,0.8-1.4,1.8
		c0,0.7,0.4,1.4,1.1,1.4C136.2,14.4,136.6,14.1,136.9,13.6 M135.1,8.7c-0.4,0.1-0.7,0.3-1.1,0.4l-0.3-1.2c0.8-0.3,1.5-0.6,2.4-0.6
		c1.6,0,2.5,1.3,2.5,2.6v3.3c0,0.8,0.1,1.5,0.4,2.2l-1.3,0.2l-0.2-0.8c-0.5,0.5-1.1,0.8-1.8,0.8c-1.6,0-2.4-1.2-2.4-2.7
		c0-1.5,0.9-2.9,2.6-2.9c0.5,0,1,0.1,1.5,0.3V9.9c0-0.8-0.5-1.3-1.2-1.3C135.7,8.5,135.4,8.6,135.1,8.7"/>
	<path class="st1" d="M143.6,8.5c-0.9,0-2.1,0.9-2.1,3.6v3.3h-1.4v-4c0-1.4-0.1-2.6-0.4-4h1.3l0.2,1.2c0.6-0.8,1.5-1.3,2.5-1.3
		c1.3,0,2,1.2,2,2.6v5.6h-1.4v-5.2C144.4,9.7,144.5,8.5,143.6,8.5"/>
</g>
<g>
	<rect x="0.9" y="0.5" class="st1" width="75.4" height="75.4"/>
	<g>
		<defs>
			<rect id="SVGID_1_" x="0.9" y="0.5" width="75.4" height="75.4"/>
		</defs>
		<clipPath id="SVGID_2_">
			<use xlink:href="#SVGID_1_"  style="overflow:visible;"/>
		</clipPath>
		<path class="st2" d="M28.4,33.5c0.1-1.1,1-1.9,2.1-1.9c1.1,0,2.1,0.9,2.1,2.1l0,7.7h-4.2L28.4,33.5z M23,33.5
			c0.1-1.1,1-1.9,2.1-1.9c1.1,0,2.1,0.9,2.1,2.1l0,7.7H23L23,33.5z M0.9,66.3V18.8c5.7-3.5,12.2-5.7,19-6.5
			C43,9.7,59.7,24.7,59.7,47.8l0,2.9L38,60.2V30.5l1-2.3v-4.3H15.8l-4.3,6.9V35l1,2.3v31.3L0.9,66.3z"/>
	</g>
	<polygon class="st0" points="16.5,71 0.9,67.8 0.9,79.4 59.7,79.4 59.7,57.4 59.7,52.5 	"/>
	<polygon class="st0" points="11.5,30.7 15.8,23.9 15.8,28.1 16.8,30.4 16.8,69.3 16.4,69.5 12.4,68.7 12.4,37.3 11.5,35 	"/>
	<path class="st3" d="M23,33.5l0,7.8h4.2v-7.5c0-0.1,0-0.1,0-0.2c0-1.1-0.9-2.1-2.1-2.1C24,31.6,23.1,32.4,23,33.5"/>
	<path class="st3" d="M28.4,33.5l0,7.8h4.2v-7.5c0-0.1,0-0.1,0-0.2c0-1.1-0.9-2.1-2.1-2.1C29.4,31.6,28.5,32.4,28.4,33.5"/>
	<path class="st3" d="M69.5,47l0,32.5h-9.8l0-31.6c0-23.1-16.7-38.1-39.8-35.5c-6.9,0.8-13.4,3-19,6.4C8.1,10.2,18.4,4.8,29.7,4.8
		C50.9,4.8,69.5,20.7,69.5,47"/>
	<path class="st0" d="M79.8,79.4V0.5H0.9v18.2C8.1,10.2,18.4,4.8,29.7,4.8c21.2,0,39.8,15.9,39.8,42.2l0,32.5"/>
</g>
<g>
	<defs>
		<rect id="SVGID_3_" x="254.7" y="0.8" width="67.6" height="78.5"/>
	</defs>
	<clipPath id="SVGID_4_">
		<use xlink:href="#SVGID_3_"  style="overflow:visible;"/>
	</clipPath>
	<path class="st4" d="M257,76.5v2.8h-0.9V71h3c1.8,0,2.7,0.9,2.7,2.7c0,1.8-0.8,2.8-2.7,2.8H257z M259.1,75.7c1.2,0,1.7-0.7,1.7-2
		c0-1.3-0.5-1.9-1.7-1.9H257v3.9H259.1z"/>
	<path class="st4" d="M266.9,78.1c0,0.3,0.3,0.5,0.7,0.5l0,0.7c-0.6,0-1.1-0.1-1.4-0.5c0,0-1.1,0.5-2.2,0.5c-1.1,0-1.7-0.6-1.7-1.8
		c0-1.2,0.6-1.7,1.8-1.8l1.9-0.2v-0.5c0-0.8-0.4-1.1-1.1-1.1c-0.8,0-2.3,0.2-2.3,0.2l0-0.7c0,0,1.3-0.3,2.4-0.3
		c1.4,0,1.9,0.6,1.9,1.9V78.1z M264.2,76.4c-0.7,0.1-1,0.4-1,1.1c0,0.7,0.3,1.1,0.9,1.1c0.9,0,1.9-0.4,1.9-0.4v-2L264.2,76.4z"/>
	<path class="st4" d="M268.3,79.3v-6h0.9v0.4c0,0,1-0.5,1.9-0.5c1.7,0,2,0.8,2,3v3.2h-0.9v-3.1c0-1.6-0.2-2.2-1.3-2.2
		c-0.9,0-1.7,0.4-1.7,0.4v4.9H268.3z"/>
	<polygon class="st4" points="274.5,71 279.6,71 279.6,71.8 275.5,71.8 275.5,74.6 278.9,74.6 278.9,75.4 275.5,75.4 275.5,78.4 
		279.6,78.4 279.6,79.3 274.5,79.3 	"/>
	<path class="st4" d="M285.2,73.3v6h-0.9v-0.4c0,0-0.9,0.5-1.8,0.5c-1.7,0-2-0.8-2-3v-3.1h0.9v3.1c0,1.7,0.1,2.2,1.3,2.2
		c0.9,0,1.6-0.4,1.6-0.4v-4.9H285.2z"/>
	<path class="st4" d="M286.6,73.3h0.9v0.8c0,0,1-0.7,2.2-0.9V74c-1.1,0.2-2.2,0.8-2.2,0.8v4.4h-0.9V73.3z"/>
	<polygon class="st4" points="295.6,71.3 296.5,71.3 296.5,79.3 295.5,79.3 295.5,72.4 293.5,73.7 293.1,73 	"/>
	<path class="st4" d="M299,78.4c0,0,1.1,0.1,2.1,0.1c1.5,0,2.2-0.9,2.2-2.8c0,0-1.2,0.5-2.1,0.5c-1.7,0-2.6-0.7-2.6-2.4
		c0-1.6,1.1-2.6,2.7-2.6c2,0,2.9,1.6,2.9,4.1c0,3.1-1.2,4.1-3.1,4.1c-1,0-2.2-0.2-2.2-0.2L299,78.4z M303.3,75c0-1.7-0.5-3-1.9-3
		c-1.1,0-1.8,0.7-1.8,1.8c0,1.1,0.6,1.6,1.7,1.6C302.1,75.4,303.3,75,303.3,75"/>
	<polygon class="st4" points="305.4,71.3 310.4,71.3 310.4,72.6 307.3,79.4 306.4,79.1 309.4,72.5 309.4,72.2 305.4,72.2 	"/>
	<path class="st4" d="M317.1,75.4c0,3-1.1,4-2.9,4c-1.8,0-2.9-0.9-2.9-3.9c0-3.3,1.1-4.2,2.9-4.2C316.1,71.2,317.1,72.2,317.1,75.4
		 M312.3,75.4c0,2.5,0.7,3.1,1.9,3.1c1.2,0,1.9-0.7,1.9-3.1c0-2.7-0.6-3.4-1.9-3.4C312.9,72,312.3,72.7,312.3,75.4"/>
	<path class="st4" d="M322.1,74.1c0,0-1.3-0.2-2.1-0.2c-0.7,0-1.3,0.2-1.3,0.9c0,0.6,0.3,0.7,1.6,0.9c1.5,0.3,2.1,0.6,2.1,1.7
		c0,1.4-0.9,1.9-2.3,1.9c-0.8,0-2.1-0.2-2.1-0.2l0-0.8c0,0,1.4,0.2,2,0.2c1,0,1.5-0.2,1.5-1c0-0.6-0.3-0.8-1.6-1
		c-1.4-0.2-2-0.5-2-1.7c0-1.3,1.1-1.8,2.2-1.8c0.9,0,2.2,0.2,2.2,0.2L322.1,74.1z"/>
	<polygon class="st5" points="267.3,0.8 267.3,9 267.3,55.1 308.2,55.1 321.5,55.1 321.5,0.8 	"/>
	<path class="st6" d="M316.3,35.9l-19.2,19.2h-6.7L316,29.5c-0.1-0.5-0.2-0.9-0.2-1.4l-27,27h-5.2l31.1-31.1
		c-0.2-0.6-0.4-1.2-0.7-1.8l-33,33h-4.3l35.9-35.9c-0.4-0.7-0.8-1.5-1.3-2.2l-38,38h-3.4l40-40c-0.6-0.8-1.3-1.6-2-2.3l-40.6,40.6
		v-2.5l39.3-39.3c-0.9-0.9-1.9-1.7-2.9-2.4l-36.4,36.4v-1.6l35.5-35.5c-1.2-0.8-2.6-1.6-3.9-2.3l-31.6,31.6v-0.7L298.4,6
		c-4-1.8-8.4-2.9-13-2.9c-6.8,0-13.1,2.2-18.2,5.9v0.1c-7.6,5.6-12.4,14.6-12.4,24.8c0,17.1,13.8,30.9,30.9,30.9
		c8.9,0,16.9-3.8,22.5-9.8h-10.6l18.7-18.7C316.3,36.2,316.3,36.1,316.3,35.9"/>
</g>
<g>
	<rect x="169.6" y="0.8" class="st7" width="79.9" height="78.9"/>
	<path class="st1" d="M176.8,6.2c1.2,0,2.1,0.2,2.6,0.9c0.4,0.5,0.8,1.2,0.8,2.1c0,1.2-0.4,2.1-1.1,2.6c-0.7,0.6-1.6,0.8-2.7,0.8
		h-2.3v-0.3c0.7-0.1,0.8-0.1,0.8-1V7.5c0-0.8-0.1-0.9-0.7-1V6.2H176.8z M176.2,11.3c0,0.7,0.2,0.9,0.7,0.9c1,0,1.9-0.9,1.9-2.9
		c0-1-0.3-1.7-0.6-2.2c-0.4-0.4-0.8-0.6-1.3-0.6c-0.3,0-0.4,0-0.5,0.1c-0.1,0.1-0.1,0.2-0.1,0.5V11.3z"/>
	<path class="st1" d="M185.7,11.1c-0.1,0.4-0.2,1.3-0.3,1.6h-4.7v-0.3c0.7-0.1,0.8-0.1,0.8-0.9V7.5c0-0.8-0.1-0.9-0.7-0.9V6.2h4.3
		c0,0.2,0.1,0.9,0.1,1.4l-0.3,0c-0.1-0.4-0.2-0.6-0.4-0.8c-0.1-0.2-0.4-0.3-1-0.3h-0.4c-0.3,0-0.3,0-0.3,0.4v2.1h0.6
		c0.8,0,0.9,0,1-0.7h0.3v1.9h-0.3c-0.2-0.7-0.2-0.7-1-0.7h-0.6v1.8c0,0.5,0,0.7,0.2,0.8c0.1,0.1,0.4,0.1,0.8,0.1
		c0.5,0,0.8-0.1,1-0.3c0.2-0.2,0.3-0.5,0.5-0.9L185.7,11.1z"/>
	<path class="st1" d="M188.7,6.2c0.8,0,1.3,0.1,1.7,0.4c0.5,0.3,0.7,0.8,0.7,1.5c0,1.3-0.9,1.9-2,2c-0.2,0-0.3,0-0.4,0l-0.6-0.2v1.4
		c0,0.8,0.1,0.9,0.8,1v0.3h-2.9v-0.3c0.7-0.1,0.7-0.1,0.7-1V7.5c0-0.8-0.1-0.9-0.7-1V6.2H188.7z M188.2,9.6c0.1,0,0.3,0.1,0.5,0.1
		c0.3,0,1.1-0.2,1.1-1.6c0-1.2-0.6-1.5-1.1-1.5c-0.2,0-0.3,0-0.3,0.1c-0.1,0.1-0.1,0.2-0.1,0.3V9.6z"/>
	<path class="st1" d="M194,12.6v-0.3c0.5-0.1,0.6-0.2,0.4-0.7c-0.1-0.3-0.2-0.7-0.3-1h-1.7c-0.1,0.2-0.2,0.6-0.3,1
		c-0.2,0.5-0.1,0.6,0.6,0.7v0.3h-2.1v-0.3c0.6-0.1,0.7-0.2,1-0.9l1.9-5.1l0.5-0.1c0.6,1.7,1.1,3.4,1.8,5.1c0.3,0.9,0.4,1,1,1v0.3
		H194z M193.3,7.9L193.3,7.9c-0.3,0.7-0.5,1.4-0.7,2.2h1.4L193.3,7.9z"/>
	<path class="st1" d="M202.9,12.7c-0.1,0-0.2,0-0.4,0c-1.2-0.1-1.5-0.3-1.9-1c-0.2-0.4-0.5-0.9-0.8-1.5c-0.1-0.3-0.3-0.4-0.6-0.5
		h-0.2v1.5c0,0.8,0.1,0.9,0.8,1v0.3h-2.8v-0.3c0.7-0.1,0.8-0.1,0.8-1V7.5c0-0.8-0.1-0.9-0.7-0.9V6.2h2.7c0.7,0,1.2,0.1,1.5,0.3
		c0.4,0.3,0.7,0.7,0.7,1.3c0,0.8-0.5,1.3-1.2,1.6c0.1,0.3,0.5,1,0.8,1.4c0.3,0.5,0.5,0.8,0.7,1c0.2,0.3,0.4,0.4,0.6,0.5L202.9,12.7z
		 M199.4,9.5c0.4,0,0.6-0.1,0.8-0.2c0.3-0.2,0.4-0.6,0.4-1.2c0-1.1-0.6-1.4-1.1-1.4c-0.2,0-0.3,0-0.4,0.1c-0.1,0.1-0.1,0.1-0.1,0.4
		v2.4H199.4z"/>
	<path class="st1" d="M207.8,7.8c-0.1-0.5-0.2-0.8-0.4-1c-0.1-0.2-0.4-0.2-0.8-0.2h-0.5v4.7c0,0.8,0.1,0.9,0.9,1v0.3h-3v-0.3
		c0.8-0.1,0.8-0.1,0.8-1V6.6h-0.4c-0.6,0-0.8,0.1-0.9,0.3c-0.1,0.2-0.2,0.5-0.3,0.9h-0.3c0-0.7,0.1-1.3,0.1-1.8h0.2
		c0.2,0.2,0.3,0.2,0.5,0.2h3.5c0.2,0,0.4-0.1,0.5-0.2h0.3c0,0.4,0,1.2,0.1,1.8L207.8,7.8z"/>
	<path class="st1" d="M213.4,12.6v-0.3c0.7-0.1,0.7-0.1,0.7-1l0-3.9h0l-2,5.1h-0.3l-1.8-5h-0.1l-0.1,2.5c0,0.8,0,1.3,0,1.6
		c0,0.5,0.2,0.6,0.8,0.6v0.3h-2.2v-0.3c0.5-0.1,0.7-0.2,0.7-0.5c0-0.3,0.1-0.9,0.2-1.8l0.1-2.1c0.1-1.1,0-1.2-0.8-1.3V6.2h2l1.7,4.2
		l1.7-4.2h1.9v0.3c-0.7,0.1-0.8,0.1-0.8,0.9l0.1,3.8c0,0.9,0.1,0.9,0.8,1v0.3H213.4z"/>
	<path class="st1" d="M221.6,11.1c-0.1,0.4-0.2,1.3-0.3,1.6h-4.7v-0.3c0.7-0.1,0.8-0.1,0.8-0.9V7.5c0-0.8-0.1-0.9-0.7-0.9V6.2h4.3
		c0,0.2,0.1,0.9,0.1,1.4l-0.3,0c-0.1-0.4-0.2-0.6-0.4-0.8c-0.1-0.2-0.4-0.3-1-0.3h-0.4c-0.3,0-0.4,0-0.4,0.4v2.1h0.6
		c0.8,0,0.9,0,1-0.7h0.3v1.9h-0.3c-0.2-0.7-0.2-0.7-1-0.7h-0.6v1.8c0,0.5,0.1,0.7,0.2,0.8c0.1,0.1,0.4,0.1,0.8,0.1
		c0.5,0,0.8-0.1,1-0.3c0.2-0.2,0.3-0.5,0.5-0.9L221.6,11.1z"/>
	<path class="st1" d="M228.2,6.6c-0.5,0-0.7,0.2-0.7,0.5c0,0.3-0.1,0.8-0.1,1.7v4h-0.5l-3.6-4.8h0v2.2c0,0.8,0,1.3,0.1,1.6
		c0,0.4,0.2,0.6,0.9,0.6v0.3H222v-0.3c0.5,0,0.7-0.2,0.8-0.6c0-0.3,0.1-0.8,0.1-1.7V8c0-0.7,0-0.8-0.2-1.1c-0.2-0.2-0.4-0.4-0.8-0.4
		V6.2h1.7l3.3,4.3h0V8.7c0-0.9-0.1-1.4-0.1-1.7c0-0.4-0.2-0.5-0.9-0.5V6.2h2.3V6.6z"/>
	<path class="st1" d="M233.4,7.8c-0.1-0.5-0.2-0.8-0.4-1c-0.2-0.2-0.4-0.2-0.8-0.2h-0.5v4.7c0,0.8,0.1,0.9,0.9,1v0.3h-3v-0.3
		c0.8-0.1,0.8-0.1,0.8-1V6.6h-0.4c-0.6,0-0.8,0.1-0.9,0.3c-0.1,0.2-0.2,0.5-0.4,0.9h-0.3c0-0.7,0.1-1.3,0.1-1.8h0.2
		c0.2,0.2,0.3,0.2,0.5,0.2h3.5c0.2,0,0.4-0.1,0.5-0.2h0.3c0,0.4,0.1,1.2,0.1,1.8L233.4,7.8z"/>
	<path class="st1" d="M180.1,20.1c0,2.1-1.3,3.4-2.9,3.4c-1.8,0-2.9-1.4-2.9-3.3c0-1.6,1-3.3,3-3.3
		C178.8,16.9,180.1,18.2,180.1,20.1 M175.7,20c0,1.7,0.5,3.1,1.6,3.1c0.8,0,1.3-0.9,1.3-2.7c0-1.9-0.5-3.1-1.5-3.1
		C176.2,17.3,175.7,18.4,175.7,20"/>
	<path class="st1" d="M184.8,18.5c-0.1-0.4-0.2-0.6-0.4-0.8c-0.2-0.2-0.5-0.3-1-0.3h-0.4c-0.3,0-0.4,0-0.4,0.4v2.2h0.8
		c0.8,0,0.9-0.1,1-0.7h0.3v1.9h-0.3c-0.1-0.7-0.2-0.8-1-0.8h-0.8v1.7c0,0.8,0.1,0.9,0.8,1v0.3h-2.9v-0.3c0.6-0.1,0.7-0.1,0.7-1v-3.8
		c0-0.8-0.1-0.9-0.7-1V17h4.4c0,0.2,0,0.9,0.1,1.4L184.8,18.5z"/>
	<path class="st1" d="M194.1,17.3c-0.7,0.1-0.8,0.1-0.8,0.9v3.9c0,0.8,0.1,0.9,0.8,0.9v0.3h-2.8v-0.3c0.7-0.1,0.8-0.1,0.8-0.9v-1.9
		h-2.2v1.9c0,0.8,0.1,0.9,0.7,0.9v0.3h-2.8v-0.3c0.7-0.1,0.8-0.1,0.8-0.9v-3.9c0-0.8-0.1-0.9-0.8-0.9V17h2.8v0.3
		c-0.6,0.1-0.7,0.1-0.7,0.9v1.5h2.2v-1.5c0-0.8-0.1-0.9-0.7-0.9V17h2.8V17.3z"/>
	<path class="st1" d="M194.8,23.4v-0.3c0.7-0.1,0.7-0.1,0.7-0.9v-3.8c0-0.8-0.1-0.9-0.7-1V17h2.8v0.3c-0.7,0.1-0.7,0.1-0.7,1v3.8
		c0,0.8,0.1,0.9,0.7,0.9v0.3H194.8z"/>
	<path class="st1" d="M201.7,18.6c-0.2-0.6-0.5-1.3-1.3-1.3c-0.5,0-0.9,0.4-0.9,1c0,0.6,0.4,0.9,1.1,1.3c1,0.5,1.7,1.1,1.7,2
		c0,1.1-0.9,1.9-2.3,1.9c-0.3,0-0.6,0-0.9-0.1c-0.3-0.1-0.4-0.1-0.6-0.2c-0.1-0.3-0.2-1-0.3-1.6l0.3-0.1c0.2,0.6,0.7,1.6,1.6,1.6
		c0.6,0,0.9-0.4,0.9-1c0-0.6-0.4-1-1.1-1.4c-0.9-0.5-1.6-1.1-1.6-2c0-1,0.8-1.9,2.2-1.9c0.5,0,1,0.2,1.3,0.2c0,0.4,0.1,0.8,0.2,1.4
		L201.7,18.6z"/>
	<path class="st1" d="M207.7,18.6c-0.1-0.5-0.2-0.8-0.4-1c-0.1-0.2-0.4-0.2-0.8-0.2H206v4.7c0,0.8,0.1,0.9,0.9,1v0.3h-3v-0.3
		c0.8-0.1,0.8-0.1,0.8-1v-4.7h-0.4c-0.6,0-0.8,0.1-0.9,0.3c-0.1,0.2-0.2,0.5-0.3,0.9h-0.3c0-0.7,0.1-1.3,0.1-1.8h0.2
		c0.2,0.2,0.3,0.2,0.5,0.2h3.5c0.2,0,0.4-0.1,0.5-0.2h0.3c0,0.4,0,1.2,0.1,1.8L207.7,18.6z"/>
	<path class="st1" d="M214.3,20.1c0,2.1-1.3,3.4-2.9,3.4c-1.8,0-2.9-1.4-2.9-3.3c0-1.6,1-3.3,3-3.3C213,16.9,214.3,18.2,214.3,20.1
		 M209.9,20c0,1.7,0.5,3.1,1.6,3.1c0.8,0,1.3-0.9,1.3-2.7c0-1.9-0.5-3.1-1.5-3.1C210.4,17.3,209.9,18.4,209.9,20"/>
	<path class="st1" d="M220.6,23.5c-0.1,0-0.2,0-0.4,0c-1.2-0.1-1.5-0.3-1.9-1c-0.2-0.4-0.5-0.9-0.8-1.5c-0.1-0.3-0.3-0.4-0.6-0.5
		h-0.2v1.5c0,0.8,0.1,0.9,0.8,1v0.3h-2.8v-0.3c0.7-0.1,0.8-0.1,0.8-1v-3.8c0-0.8-0.1-0.9-0.7-0.9V17h2.7c0.7,0,1.2,0.1,1.5,0.3
		c0.4,0.3,0.7,0.7,0.7,1.3c0,0.8-0.5,1.3-1.2,1.6c0.1,0.3,0.5,1,0.8,1.4c0.3,0.5,0.5,0.8,0.7,1c0.2,0.3,0.4,0.4,0.6,0.5L220.6,23.5z
		 M217.1,20.2c0.4,0,0.6-0.1,0.8-0.2c0.3-0.2,0.4-0.6,0.4-1.2c0-1.1-0.6-1.4-1.1-1.4c-0.2,0-0.3,0-0.4,0.1c-0.1,0.1-0.1,0.1-0.1,0.4
		v2.4H217.1z"/>
	<path class="st1" d="M226.1,17.3c-0.6,0.1-0.7,0.2-1.1,0.8c-0.3,0.6-0.6,1.1-1,2c-0.1,0.2-0.2,0.3-0.2,0.7v1.3c0,0.8,0.1,0.9,0.9,1
		v0.3h-3v-0.3c0.8-0.1,0.8-0.1,0.8-1v-1.1c0-0.2,0-0.3-0.1-0.5c-0.2-0.6-0.6-1.2-1.2-2.3c-0.3-0.6-0.5-0.7-1-0.8V17h2.6v0.3
		c-0.6,0.1-0.6,0.2-0.4,0.6c0.3,0.7,0.7,1.4,1,2.1c0.3-0.5,0.7-1.4,1-2.1c0.1-0.4,0.1-0.5-0.6-0.6V17h2.1V17.3z"/>
	<path class="st1" d="M177.4,34.2v-0.3c0.5-0.1,0.6-0.2,0.4-0.7c-0.1-0.3-0.2-0.7-0.3-1h-1.7c-0.1,0.2-0.2,0.6-0.3,1
		c-0.2,0.5-0.1,0.6,0.6,0.7v0.3H174v-0.3c0.6-0.1,0.7-0.2,1-0.9l1.9-5.1l0.5-0.1c0.6,1.7,1.1,3.4,1.7,5.1c0.3,0.9,0.4,1,1,1v0.3
		H177.4z M176.7,29.5L176.7,29.5c-0.3,0.7-0.5,1.4-0.7,2.2h1.4L176.7,29.5z"/>
	<path class="st1" d="M186.7,28.1c-0.5,0-0.7,0.2-0.7,0.5c0,0.3-0.1,0.8-0.1,1.7v4h-0.5l-3.6-4.8h0v2.2c0,0.8,0,1.3,0.1,1.6
		c0.1,0.4,0.2,0.6,0.9,0.6v0.3h-2.3v-0.3c0.5,0,0.7-0.2,0.8-0.6c0-0.3,0.1-0.8,0.1-1.7v-2.1c0-0.7,0-0.8-0.2-1.1
		c-0.2-0.2-0.4-0.4-0.8-0.4v-0.3h1.7l3.3,4.3h0v-1.7c0-0.9-0.1-1.4-0.1-1.7c-0.1-0.4-0.2-0.5-0.9-0.5v-0.3h2.3V28.1z"/>
	<path class="st1" d="M189.8,27.8c1.2,0,2.1,0.2,2.6,0.9c0.4,0.5,0.8,1.2,0.8,2.1c0,1.2-0.4,2.1-1.1,2.6c-0.7,0.6-1.6,0.8-2.7,0.8
		h-2.3v-0.3c0.7,0,0.8-0.1,0.8-1v-3.8c0-0.8-0.1-0.9-0.7-1v-0.3H189.8z M189.2,32.9c0,0.7,0.2,0.9,0.7,0.9c1,0,1.9-0.9,1.9-2.9
		c0-1-0.3-1.7-0.6-2.2c-0.4-0.4-0.8-0.6-1.3-0.6c-0.3,0-0.4,0-0.5,0.1c-0.1,0.1-0.1,0.2-0.1,0.5V32.9z"/>
	<path class="st1" d="M179.6,43.3c-0.1,0.4-0.3,1.1-0.5,1.5c-0.3,0.1-1,0.2-1.6,0.2c-2.4,0-3.3-1.7-3.3-3.2c0-2,1.4-3.4,3.5-3.4
		c0.6,0,1.3,0.2,1.5,0.2c0.1,0.5,0.1,1,0.2,1.5l-0.3,0.1c-0.3-1.1-0.9-1.4-1.6-1.4c-1.1,0-1.9,1.3-1.9,2.8c0,1.8,0.8,3,1.9,3
		c0.7,0,1.2-0.5,1.6-1.4L179.6,43.3z"/>
	<path class="st1" d="M180.1,44.9v-0.3c0.7-0.1,0.7-0.1,0.7-0.9v-3.8c0-0.8-0.1-0.9-0.7-1v-0.3h2.8v0.3c-0.7,0.1-0.7,0.1-0.7,1v3.8
		c0,0.8,0.1,0.9,0.7,0.9v0.3H180.1z"/>
	<path class="st1" d="M189.6,38.9c-0.6,0.1-0.7,0.1-1.1,1.1c-0.3,0.8-1.2,3-1.9,5h-0.5c-0.6-1.8-1.5-4.2-1.9-5.2
		c-0.3-0.8-0.4-0.9-1-0.9v-0.3h2.8l0,0.3c-0.6,0.1-0.7,0.2-0.5,0.6c0.2,0.6,0.9,2.6,1.3,3.7h0c0.4-1,0.9-2.4,1.2-3.4
		c0.2-0.7,0.2-0.8-0.6-0.9v-0.3h2.2V38.9z"/>
	<path class="st1" d="M190,44.9v-0.3c0.7-0.1,0.7-0.1,0.7-0.9v-3.8c0-0.8-0.1-0.9-0.7-1v-0.3h2.8v0.3c-0.7,0.1-0.7,0.1-0.7,1v3.8
		c0,0.8,0.1,0.9,0.7,0.9v0.3H190z"/>
	<path class="st1" d="M198.2,43.3c-0.1,0.4-0.3,1.3-0.3,1.6h-4.5v-0.3c0.8-0.1,0.8-0.1,0.8-0.9v-3.8c0-0.8-0.1-0.9-0.8-1v-0.3h2.8
		v0.3c-0.7,0.1-0.8,0.1-0.8,1v3.9c0,0.5,0,0.7,0.2,0.8c0.2,0.1,0.4,0.1,0.7,0.1c0.4,0,0.7-0.1,0.9-0.3c0.2-0.2,0.3-0.5,0.5-1
		L198.2,43.3z"/>
	<path class="st1" d="M198.5,44.9v-0.3c0.7-0.1,0.7-0.1,0.7-0.9v-3.8c0-0.8-0.1-0.9-0.7-1v-0.3h2.8v0.3c-0.7,0.1-0.7,0.1-0.7,1v3.8
		c0,0.8,0.1,0.9,0.7,0.9v0.3H198.5z"/>
	<path class="st1" d="M207.1,43.2c-0.1,0.4-0.2,1.4-0.3,1.7H202l-0.1-0.2c1-1.8,2.4-4.2,3.3-5.8h-1c-0.9,0-1.1,0.1-1.3,0.3
		c-0.1,0.2-0.3,0.5-0.4,0.9l-0.3,0c0-0.7,0.1-1.4,0.1-1.9h0.3c0.1,0.2,0.3,0.2,0.5,0.2h3.6l0.1,0.1c-1.1,1.9-2.2,3.8-3.3,5.8
		c0.3,0,0.6,0.1,1.1,0.1c0.7,0,1.2-0.1,1.5-0.3c0.2-0.2,0.4-0.5,0.6-1.1L207.1,43.2z"/>
	<path class="st1" d="M210.9,44.9v-0.3c0.5-0.1,0.6-0.2,0.4-0.7c-0.1-0.3-0.2-0.7-0.3-1h-1.7c-0.1,0.2-0.2,0.6-0.3,1
		c-0.1,0.5-0.1,0.6,0.6,0.7v0.3h-2.1v-0.3c0.6-0.1,0.7-0.2,1-0.9l1.9-5.1l0.5-0.1c0.6,1.7,1.1,3.4,1.8,5.1c0.3,0.9,0.4,1,1,1v0.3
		H210.9z M210.1,40.2L210.1,40.2c-0.3,0.7-0.5,1.4-0.7,2.2h1.4L210.1,40.2z"/>
	<path class="st1" d="M218.1,40.1c-0.1-0.5-0.2-0.8-0.4-1c-0.1-0.2-0.4-0.2-0.8-0.2h-0.5v4.7c0,0.8,0.1,0.9,0.9,1v0.3h-3v-0.3
		c0.8-0.1,0.8-0.1,0.8-1v-4.7h-0.4c-0.6,0-0.8,0.1-0.9,0.3c-0.1,0.2-0.2,0.5-0.4,0.9h-0.3c0-0.7,0.1-1.3,0.1-1.8h0.2
		c0.2,0.2,0.3,0.2,0.5,0.2h3.5c0.2,0,0.4-0.1,0.5-0.2h0.3c0,0.4,0.1,1.2,0.1,1.8L218.1,40.1z"/>
	<path class="st1" d="M219,44.9v-0.3c0.7-0.1,0.7-0.1,0.7-0.9v-3.8c0-0.8-0.1-0.9-0.7-1v-0.3h2.8v0.3c-0.7,0.1-0.7,0.1-0.7,1v3.8
		c0,0.8,0.1,0.9,0.7,0.9v0.3H219z"/>
	<path class="st1" d="M228.2,41.7c0,2.1-1.3,3.4-2.9,3.4c-1.7,0-2.9-1.4-2.9-3.3c0-1.6,1-3.3,3-3.3C227,38.4,228.2,39.7,228.2,41.7
		 M223.9,41.5c0,1.7,0.5,3.1,1.6,3.1c0.8,0,1.3-0.9,1.3-2.7c0-1.9-0.5-3.1-1.5-3.1C224.4,38.8,223.9,40,223.9,41.5"/>
	<path class="st1" d="M235,38.9c-0.5,0-0.7,0.2-0.7,0.5c0,0.3-0.1,0.8-0.1,1.7v4h-0.5l-3.6-4.8h0v2.2c0,0.8,0.1,1.3,0.1,1.6
		c0.1,0.4,0.2,0.6,0.9,0.6v0.3h-2.3v-0.3c0.5,0,0.7-0.2,0.8-0.6c0-0.3,0.1-0.8,0.1-1.7v-2.1c0-0.7,0-0.8-0.2-1.1
		c-0.2-0.2-0.4-0.4-0.8-0.4v-0.3h1.7l3.3,4.3h0v-1.7c0-0.9-0.1-1.4-0.1-1.7c-0.1-0.4-0.2-0.5-0.9-0.5v-0.3h2.3V38.9z"/>
</g>
</svg>
